<svg id="图层_1" data-name="图层 1" xmlns="http://www.w3.org/2000/svg" xmlns:xlink="http://www.w3.org/1999/xlink" viewBox="0 0 449.95 287.49"><defs><style>.cls-1,.cls-3{fill:#fff;}.cls-1,.cls-102,.cls-103,.cls-104,.cls-106,.cls-107,.cls-109,.cls-110,.cls-15,.cls-16,.cls-17,.cls-18,.cls-21,.cls-22,.cls-25,.cls-26,.cls-27,.cls-28,.cls-30,.cls-53,.cls-71,.cls-74,.cls-79,.cls-86,.cls-89,.cls-91,.cls-92,.cls-94{fill-rule:evenodd;}.cls-2{mask:url(#mask);}.cls-4{mask:url(#mask-2);}.cls-5{mask:url(#mask-3);}.cls-6{mask:url(#mask-4);}.cls-7{mask:url(#mask-5);}.cls-8{mask:url(#mask-6);}.cls-9{mask:url(#mask-7);}.cls-10{mask:url(#mask-8);}.cls-11{mask:url(#mask-9);}.cls-12{mask:url(#mask-10);}.cls-13{mask:url(#mask-11);}.cls-108,.cls-114,.cls-115,.cls-116,.cls-14,.cls-97{fill:none;}.cls-15{fill:url(#未命名的渐变);}.cls-16{fill:url(#未命名的渐变_2);}.cls-17{fill:url(#未命名的渐变_3);}.cls-18{fill:url(#未命名的渐变_4);}.cls-19{fill:#548bd4;}.cls-20,.cls-21{fill:#f9c499;}.cls-22,.cls-31{fill:#d83b01;}.cls-23,.cls-24,.cls-32,.cls-40,.cls-43{isolation:isolate;}.cls-24{font-size:12px;fill:#3f3f3f;}.cls-24,.cls-32,.cls-40{font-family:Calibri-Bold, Calibri;font-weight:700;}.cls-25{fill:#c2c2c2;}.cls-26{fill:#939393;}.cls-113,.cls-28,.cls-32{fill:#7f7f7f;}.cls-29{fill:#595959;}.cls-30{fill:#0070c0;}.cls-32{font-size:10px;}.cls-33{letter-spacing:-0.01em;}.cls-34{letter-spacing:0em;}.cls-35{letter-spacing:-0.02em;}.cls-36{letter-spacing:-0.02em;}.cls-37{letter-spacing:-0.01em;}.cls-38{letter-spacing:-0.02em;}.cls-39{letter-spacing:-0.01em;}.cls-40,.cls-43{font-size:8px;}.cls-40,.cls-43,.cls-63{fill:#262626;}.cls-41{letter-spacing:0em;}.cls-42{letter-spacing:-0.01em;}.cls-43{font-family:Calibri;}.cls-44{letter-spacing:-0.02em;}.cls-45{letter-spacing:-0.01em;}.cls-46{letter-spacing:0em;}.cls-47{letter-spacing:0em;}.cls-48{letter-spacing:-0.01em;}.cls-49{letter-spacing:0em;}.cls-50{letter-spacing:-0.03em;}.cls-51{letter-spacing:0em;}.cls-52{clip-path:url(#clip-path);}.cls-53{fill:#0078d7;}.cls-54{letter-spacing:-0.01em;}.cls-55{letter-spacing:-0.02em;}.cls-56{letter-spacing:-0.01em;}.cls-57{letter-spacing:-0.02em;}.cls-58{letter-spacing:-0.02em;}.cls-59{letter-spacing:0em;}.cls-60{letter-spacing:-0.01em;}.cls-61{letter-spacing:-0.01em;}.cls-62{fill:#2f2f2f;}.cls-64{letter-spacing:0.01em;}.cls-65{letter-spacing:-0.01em;}.cls-66{letter-spacing:0em;}.cls-67{letter-spacing:0.01em;}.cls-68{letter-spacing:-0.01em;}.cls-69{letter-spacing:-0.01em;}.cls-70{letter-spacing:0em;}.cls-71{fill:#5a5a5a;}.cls-72{mask:url(#mask-12);}.cls-73{mask:url(#mask-13);}.cls-74{fill:url(#未命名的渐变_20);}.cls-75{mask:url(#mask-14);}.cls-76{fill:url(#未命名的渐变_8);}.cls-77{fill:url(#未命名的渐变_8-2);}.cls-78{fill:url(#未命名的渐变_8-3);}.cls-79{fill:#737a7f;}.cls-80{fill:#8f8f8f;}.cls-80,.cls-83{fill-opacity:0;}.cls-81{fill:url(#grad10-222);}.cls-82{fill:url(#未命名的渐变_21);}.cls-83{fill:#333;}.cls-84{mask:url(#mask-17);}.cls-85{mask:url(#mask-18);}.cls-86{fill:url(#未命名的渐变_11);}.cls-87{mask:url(#mask-19);}.cls-88{mask:url(#mask-20);}.cls-89{fill:url(#未命名的渐变_13);}.cls-90{mask:url(#mask-22);}.cls-91{fill:url(#未命名的渐变_13-2);}.cls-92{fill:#fc0;}.cls-93{fill:url(#未命名的渐变_14);}.cls-94{fill:#499749;}.cls-95{fill:url(#未命名的渐变_16);}.cls-96{fill:url(#未命名的渐变_17);}.cls-97{stroke:#808284;stroke-miterlimit:1.95;stroke-width:0.24px;}.cls-108,.cls-97{stroke-linecap:square;}.cls-98{fill:url(#grad10-222-5);}.cls-99{fill:url(#未命名的渐变_21-2);}.cls-100{mask:url(#mask-26);}.cls-101{mask:url(#mask-27);}.cls-102{fill:url(#未命名的渐变_20-2);}.cls-103{fill:#78c17c;}.cls-104{fill:#a4d3dd;}.cls-105{fill:#974f72;}.cls-106{fill:#f36b3a;}.cls-107{fill:#2f7f2d;}.cls-108{stroke:#453d3d;stroke-miterlimit:2.08;stroke-width:0.52px;stroke-dasharray:0.52 1.04;}.cls-109{fill:#558755;}.cls-110{fill:#565361;}.cls-111{fill:url(#grad10-222-9);}.cls-112{fill:url(#未命名的渐变_21-3);}.cls-113,.cls-114,.cls-115,.cls-116{stroke:#7f7f7f;stroke-miterlimit:10;}.cls-115{stroke-dasharray:7.76 3.88;}.cls-116{stroke-dasharray:8 4;}</style><mask id="mask" x="264.21" y="91.68" width="22.11" height="25.73" maskUnits="userSpaceOnUse"><g id="mfid33"><path id="mfid32" class="cls-1" d="M280.16,93.16h-.39v5.28h5.07v-.53Z"/></g></mask><mask id="mask-2" x="291.75" y="91.69" width="20.58" height="24.22" maskUnits="userSpaceOnUse"><g id="mfid62"><path id="mfid61" class="cls-1" d="M300.83,99.54c0,.08,0,.16,0,.24A3,3,0,0,0,306.5,101c-1,0-2.2.07-3-.67A3.72,3.72,0,0,0,300.83,99.54Z"/></g></mask><mask id="mask-3" x="291.75" y="91.69" width="20.58" height="24.22" maskUnits="userSpaceOnUse"><g id="mfid68"><path id="mfid67" class="cls-1" d="M303.8,96.8a3,3,0,0,0-3,2.74,3.72,3.72,0,0,1,2.67.81c.8.74,2,.63,3,.67a2.89,2.89,0,0,0,.28-1.24A3,3,0,0,0,303.8,96.8Z"/></g></mask><mask id="mask-4" x="291.75" y="91.69" width="20.58" height="24.22" maskUnits="userSpaceOnUse"><g id="mfid75"><path id="mfid74" class="cls-1" d="M305.25,106.11c-2.1.06-2.34,1.68-4.74.82a5.93,5.93,0,0,0-4.74.65,6,6,0,0,0-2.44-2.56V111h17.43v-2.32C307.79,108.9,307.1,106.06,305.25,106.11Z"/></g></mask><mask id="mask-5" x="291.75" y="91.69" width="20.58" height="24.22" maskUnits="userSpaceOnUse"><g id="mfid80"><path id="mfid79" class="cls-1" d="M308.33,111.71a5.94,5.94,0,0,0-4.74-.65c-2.41.86-3.24,2.6-5.33,2.54-1.86-.06-2-.57-4.93-.83v1.54h17.43v-5.16A6,6,0,0,0,308.33,111.71Z"/></g></mask><mask id="mask-6" x="291.75" y="91.69" width="20.58" height="24.22" maskUnits="userSpaceOnUse"><g id="mfid84"><path id="mfid83" class="cls-1" d="M299.38,102.19s2.88,1.63,4.23,1.08c1.16-.46,4.91-.43,4.78-1-.46-2.13-3.37-.47-4.89-1.87s-4.23-.57-4.23-.57,1-.82-1.85-2.54a4,4,0,0,0-4.09.39v5c.27.09.57.17.9.26C296.56,103.53,299.38,102.19,299.38,102.19Z"/></g></mask><mask id="mask-7" x="396.84" y="91.59" width="24.15" height="28.11" maskUnits="userSpaceOnUse"><g id="mfid91"><path id="mfid90" class="cls-1" d="M414.28,93.16h-.42V99h5.55v-.58Z"/></g></mask><mask id="mask-8" x="264.21" y="91.68" width="22.11" height="25.73" maskUnits="userSpaceOnUse"><g id="mfid41"><path id="mfid40" class="cls-1" d="M269.54,107.09h11v-.49h-11Z"/></g></mask><mask id="mask-9" x="264.21" y="91.68" width="22.11" height="25.73" maskUnits="userSpaceOnUse"><g id="mfid45"><path id="mfid44" class="cls-1" d="M269.54,110h11v-.49h-11Z"/></g></mask><mask id="mask-10" x="264.21" y="91.68" width="22.11" height="25.73" maskUnits="userSpaceOnUse"><g id="mfid49"><path id="mfid48" class="cls-1" d="M269.54,113h11v-.49h-11Z"/></g></mask><mask id="mask-11" x="291.75" y="91.69" width="20.58" height="24.22" maskUnits="userSpaceOnUse"><g id="mfid55"><path id="mfid54" class="cls-1" d="M293.33,93.28v4.35a4,4,0,0,1,4.09-.39c2.82,1.72,1.85,2.54,1.85,2.54a6.75,6.75,0,0,1,1.56-.24,3,3,0,1,1,5.68,1.48c.9,0,1.66.2,1.88,1.2.14.62-3.61.59-4.78,1.06-1.35.54-4.23-1.09-4.23-1.09s-2.82,1.34-5.15.7c-.33-.09-.63-.17-.9-.26v11.68h17.43v-21Z"/></g></mask><linearGradient id="未命名的渐变" x1="23682" y1="-840.39" x2="23683" y2="-840.39" gradientTransform="matrix(-0.5, 0, 0, 1, 11841.5, 840.89)" gradientUnits="userSpaceOnUse"><stop offset="0" stop-color="#fff" stop-opacity="0"/><stop offset="1" stop-color="#e6e6e6" stop-opacity="0"/></linearGradient><linearGradient id="未命名的渐变_2" x1="-7894" y1="-16380.61" x2="-7893" y2="-16380.61" gradientTransform="matrix(0.5, 0, 0, -1, 3947.5, -16380.11)" xlink:href="#未命名的渐变"/><linearGradient id="未命名的渐变_3" x1="23434.22" y1="-16504.5" x2="23435.22" y2="-16504.5" gradientTransform="matrix(0, 0.5, 1, 0, 16505, -11716.61)" xlink:href="#未命名的渐变"/><linearGradient id="未命名的渐变_4" x1="-7646.22" y1="-716.5" x2="-7645.22" y2="-716.5" gradientTransform="matrix(0, -0.5, -1, 0, -716, -3822.61)" xlink:href="#未命名的渐变"/><clipPath id="clip-path" transform="translate(-0.45 -0.45)"><rect class="cls-14" x="102.1" y="39.44" width="42.56" height="40.64"/></clipPath><mask id="mask-12" x="263.76" y="91.23" width="22.11" height="25.73" maskUnits="userSpaceOnUse"><g transform="translate(-0.45 -0.45)"><g id="mfid34"><g class="cls-2"><rect id="mfid35" class="cls-3" x="264.21" y="91.68" width="22.11" height="25.73"/></g></g></g></mask><mask id="mask-13" x="278.34" y="91.73" width="7.03" height="7.25" maskUnits="userSpaceOnUse"><g transform="translate(-0.45 -0.45)"><g id="mfid38"><rect class="cls-3" x="278.79" y="92.17" width="7.03" height="7.25"/></g></g></mask><radialGradient id="未命名的渐变_20" cx="-61.26" cy="602.59" r="0.5" gradientTransform="translate(712.92 -4273.5) scale(7.03 7.25)" gradientUnits="userSpaceOnUse"><stop offset="0" stop-color="#c6c6c6"/><stop offset="1" stop-color="#606060"/></radialGradient><mask id="mask-14" x="263.76" y="91.23" width="22.11" height="25.73" maskUnits="userSpaceOnUse"><g transform="translate(-0.45 -0.45)"><g id="mfid42"><g class="cls-10"><rect id="mfid35-2" data-name="mfid35" class="cls-3" x="264.21" y="91.68" width="22.11" height="25.73"/></g></g></g></mask><linearGradient id="未命名的渐变_8" x1="-71.25" y1="567.82" x2="-71.11" y2="567.82" gradientTransform="translate(6995.48 -53508.19) scale(94.42 94.42)" gradientUnits="userSpaceOnUse"><stop offset="0" stop-color="#9aaab7"/><stop offset="1" stop-color="#5084d1"/></linearGradient><linearGradient id="未命名的渐变_8-2" x1="-71.25" y1="567.82" x2="-71.11" y2="567.82" gradientTransform="translate(6995.48 -53505.24) scale(94.42 94.42)" xlink:href="#未命名的渐变_8"/><linearGradient id="未命名的渐变_8-3" x1="-71.25" y1="567.82" x2="-71.11" y2="567.82" gradientTransform="translate(6995.48 -53502.29) scale(94.42 94.42)" xlink:href="#未命名的渐变_8"/><pattern id="grad10-222" data-name="grad10-222" width="1" height="1" patternTransform="matrix(7.32, 0, 0, -7.32, 288.66, 746.63)" patternUnits="userSpaceOnUse" viewBox="0 0 1 1"><rect class="cls-14" width="1" height="1"/><path class="cls-15" d="M.5.5,0,1V0Z"/><path class="cls-16" d="M.5.5,1,1V0Z"/><path class="cls-17" d="M.5.5,0,1H1Z"/><path class="cls-18" d="M.5.5,0,0H1Z"/></pattern><radialGradient id="未命名的渐变_21" cx="-58.12" cy="249.08" r="1.4" gradientTransform="matrix(5.19, 0, 0, -0.88, 585.21, 322.12)" gradientUnits="userSpaceOnUse"><stop offset="0" stop-color="#333" stop-opacity="0"/><stop offset="1" stop-opacity="0"/></radialGradient><mask id="mask-17" x="291.3" y="91.24" width="20.58" height="24.22" maskUnits="userSpaceOnUse"><g transform="translate(-0.45 -0.45)"><g id="mfid56"><g class="cls-13"><rect id="mfid57" class="cls-3" x="291.75" y="91.69" width="20.58" height="24.22"/></g></g></g></mask><mask id="mask-18" x="291.91" y="91.85" width="19.38" height="22.99" maskUnits="userSpaceOnUse"><g transform="translate(-0.45 -0.45)"><g id="mfid60"><rect class="cls-3" x="292.36" y="92.3" width="19.38" height="22.99"/></g></g></mask><radialGradient id="未命名的渐变_11" cx="-67.78" cy="576.44" r="0.5" gradientTransform="translate(1615.73 -13148.55) scale(19.38 22.99)" gradientUnits="userSpaceOnUse"><stop offset="0" stop-color="#004ac0"/><stop offset="1" stop-color="#cfe8f2"/></radialGradient><mask id="mask-19" x="291.3" y="91.24" width="20.58" height="24.22" maskUnits="userSpaceOnUse"><g transform="translate(-0.45 -0.45)"><g id="mfid63"><g class="cls-4"><rect id="mfid57-2" data-name="mfid57" class="cls-3" x="291.75" y="91.69" width="20.58" height="24.22"/></g></g></g></mask><mask id="mask-20" x="296.22" y="95.98" width="21.63" height="14.64" maskUnits="userSpaceOnUse"><g transform="translate(-0.45 -0.45)"><g id="mfid66"><rect class="cls-3" x="299.83" y="98.57" width="7.65" height="5.18"/></g></g></mask><radialGradient id="未命名的渐变_13" cx="-68.17" cy="583.31" r="0.5" gradientTransform="translate(1782.12 -8436.08) scale(21.63 14.64)" gradientUnits="userSpaceOnUse"><stop offset="0" stop-color="#c95757"/><stop offset="0.71" stop-color="#fff"/><stop offset="1" stop-color="#fff"/></radialGradient><mask id="mask-22" x="296.14" y="92.81" width="22.34" height="17.47" maskUnits="userSpaceOnUse"><g transform="translate(-0.45 -0.45)"><g id="mfid72"><rect class="cls-3" x="299.86" y="95.82" width="7.9" height="6.18"/></g></g></mask><radialGradient id="未命名的渐变_13-2" cx="-68.28" cy="580.25" r="0.5" gradientTransform="translate(1833.35 -10033.82) scale(22.34 17.47)" xlink:href="#未命名的渐变_13"/><linearGradient id="未命名的渐变_14" x1="-79.26" y1="565.17" x2="-79.06" y2="565.17" gradientTransform="matrix(0, -38.19, 230.11, 0, -129751.06, -2915.38)" gradientUnits="userSpaceOnUse"><stop offset="0" stop-color="#1b4896"/><stop offset="1" stop-color="#b5dceb"/></linearGradient><linearGradient id="未命名的渐变_16" x1="-71.24" y1="567.82" x2="-71.04" y2="567.82" gradientTransform="translate(6970.41 -53115.1) scale(93.74 93.74)" gradientUnits="userSpaceOnUse"><stop offset="0" stop-color="#42bc33"/><stop offset="1" stop-color="#bde1a1"/></linearGradient><linearGradient id="未命名的渐变_17" x1="-77.93" y1="565.23" x2="-77.75" y2="565.23" gradientTransform="matrix(0, -46.8, 187.75, 0, -105821.88, -3543.37)" gradientUnits="userSpaceOnUse"><stop offset="0" stop-color="#23b3de"/><stop offset="1" stop-color="#fff"/></linearGradient><pattern id="grad10-222-5" data-name="grad10-222" width="1" height="1" patternTransform="matrix(6.84, 0, 0, -6.84, 312.28, 744.35)" patternUnits="userSpaceOnUse" viewBox="0 0 1 1"><rect class="cls-14" width="1" height="1"/><path class="cls-15" d="M.5.5,0,1V0Z"/><path class="cls-16" d="M.5.5,1,1V0Z"/><path class="cls-17" d="M.5.5,0,1H1Z"/><path class="cls-18" d="M.5.5,0,0H1Z"/></pattern><radialGradient id="未命名的渐变_21-2" cx="-57.15" cy="226.94" r="1.4" gradientTransform="matrix(4.85, 0, 0, -0.82, 586.81, 288.95)" xlink:href="#未命名的渐变_21"/><mask id="mask-26" x="396.39" y="91.15" width="24.15" height="28.11" maskUnits="userSpaceOnUse"><g transform="translate(-0.45 -0.45)"><g id="mfid92"><g class="cls-9"><rect id="mfid93" class="cls-3" x="396.84" y="91.59" width="24.15" height="28.11"/></g></g></g></mask><mask id="mask-27" x="412.37" y="91.67" width="7.64" height="7.88" maskUnits="userSpaceOnUse"><g transform="translate(-0.45 -0.45)"><g id="mfid96"><rect class="cls-3" x="412.82" y="92.11" width="7.64" height="7.88"/></g></g></mask><radialGradient id="未命名的渐变_20-2" cx="-62.07" cy="599.55" r="0.5" gradientTransform="translate(890.74 -4627.72) scale(7.64 7.88)" xlink:href="#未命名的渐变_20"/><pattern id="grad10-222-9" data-name="grad10-222" width="1" height="1" patternTransform="matrix(8.03, 0, 0, -8.03, 424.72, 743.77)" patternUnits="userSpaceOnUse" viewBox="0 0 1 1"><rect class="cls-14" width="1" height="1"/><path class="cls-15" d="M.5.5,0,1V0Z"/><path class="cls-16" d="M.5.5,1,1V0Z"/><path class="cls-17" d="M.5.5,0,1H1Z"/><path class="cls-18" d="M.5.5,0,0H1Z"/></pattern><radialGradient id="未命名的渐变_21-3" cx="-59.35" cy="276.92" r="1.4" gradientTransform="matrix(5.69, 0, 0, -0.96, 755.84, 371.1)" xlink:href="#未命名的渐变_21"/></defs><g id="shape5158-1"><rect class="cls-19" x="55.69" y="98.62" width="71.44" height="81.8"/></g><g id="shape5157-3"><rect class="cls-20" x="368.44" y="89.06" width="81.51" height="63.56"/></g><g id="shape5156-5"><rect class="cls-20" x="261.61" y="89.06" width="82.64" height="63.56"/></g><g id="group5066-7"><g id="group5062-8"><g id="shape5063-9"><path class="cls-21" d="M405,53.25a15.35,15.35,0,0,0-4-5.9,19.86,19.86,0,0,0-5.89-4A18.49,18.49,0,0,0,388,41.76a28.57,28.57,0,0,0-3.1-9.93,25.54,25.54,0,0,0-6.21-7.75,29.26,29.26,0,0,0-8.38-5.28A27.36,27.36,0,0,0,360,16.94a24.25,24.25,0,0,0-6.83.93,56.72,56.72,0,0,0-6.52,2.48,61.06,61.06,0,0,0-5.58,4,35.75,35.75,0,0,0-4.35,5.27,23.46,23.46,0,0,0-4.65-.31,25.28,25.28,0,0,0-9.62,1.86,22.86,22.86,0,0,0-7.76,5.28,26.35,26.35,0,0,0-5.28,7.76,25.81,25.81,0,0,0,0,19.24,23,23,0,0,0,5.28,7.76,26.32,26.32,0,0,0,7.76,5.27,25.28,25.28,0,0,0,9.62,1.87H347V64.11h19.87V78.39H388a18.49,18.49,0,0,0,7.14-1.56,15.4,15.4,0,0,0,5.89-4,19.62,19.62,0,0,0,4-5.9,18.4,18.4,0,0,0,1.55-7.14A28.12,28.12,0,0,0,405,53.25Z" transform="translate(-0.45 -0.45)"/></g><g id="shape5064-11"><path class="cls-22" d="M367.94,85.83l-7.76,7.45V71.56h-6.52V93.28l-7.76-7.45-4.34,4.66L357.08,106l15.51-15.52Z" transform="translate(-0.45 -0.45)"/></g></g><g id="shape5065-13"><rect class="cls-14" x="316.12" y="38.7" width="79" height="20"/><g class="cls-23"><text class="cls-24" transform="translate(331.64 45.11)">Office 365 <tspan x="14.19" y="14.4">CDN </tspan></text></g></g></g><g id="group5067-17"><g id="shape5068-18"><path class="cls-25" d="M104.25,242.24a15.49,15.49,0,0,0,15.49-15.5,15.83,15.83,0,0,0-9.11-14.22,15.6,15.6,0,0,0-6.38-1.45,14.9,14.9,0,0,0-6.38,1.45,15.61,15.61,0,0,0-9.12,14.22A15.37,15.37,0,0,0,104.25,242.24Z" transform="translate(-0.45 -0.45)"/></g><g id="shape5069-20"><path class="cls-25" d="M104.24,245.88a23.26,23.26,0,0,0-23.33,23.34h46.66A23.5,23.5,0,0,0,104.24,245.88Z" transform="translate(-0.45 -0.45)"/></g><g id="group5070-22"><g id="shape5071-23"><path class="cls-26" d="M55.57,269.4H73.8a31.43,31.43,0,0,1,3.46-14.22,14,14,0,0,0-6.2-1.28A15.37,15.37,0,0,0,55.57,269.4Z" transform="translate(-0.45 -0.45)"/></g><g id="shape5072-25"><path class="cls-26" d="M71.07,226.74A11.75,11.75,0,0,0,59.4,238.41a11.62,11.62,0,0,0,4.19,8.93,11.23,11.23,0,0,0,6.75,2.74h1.45a11.21,11.21,0,0,0,6.75-2.74,11.65,11.65,0,0,0-7.47-20.6Z" transform="translate(-0.45 -0.45)"/></g></g></g><g id="shape5096-27"><g id="shadow5096-28"><g id="lend4"><path class="cls-27" d="M162.25,218h.08l-.06.06,0-.07" transform="translate(-0.45 -0.45)"/></g><g id="lend4-2" data-name="lend4"><path class="cls-27" d="M161.56,218.23h-.08l.06-.06,0,.07" transform="translate(-0.45 -0.45)"/></g><path class="cls-27" d="M161.55,218.2" transform="translate(-0.45 -0.45)"/></g><g id="lend4-3" data-name="lend4"><path class="cls-28" d="M196.32,200.09l7.75,1.35-5.73,5.39-2-6.74" transform="translate(-0.45 -0.45)"/></g><g id="lend4-4" data-name="lend4"><path class="cls-28" d="M127.49,228.09l-7.75-1.35,5.73-5.4,2,6.75" transform="translate(-0.45 -0.45)"/></g><path class="cls-28" d="M126.48,224.71" transform="translate(-0.45 -0.45)"/></g><g id="group5073-47"><g id="group5074-48"><g id="shape5075-49"><rect class="cls-29" x="203.62" y="178.49" width="47.61" height="6.73"/></g><g id="shape5076-51"><path class="cls-30" d="M227.8,194.41a7.91,7.91,0,1,0,7.9,7.91A7.9,7.9,0,0,0,227.8,194.41Zm5.72,9.42c0-.17,0-.17-.17-.33,0-.17-.17-.34-.34-.51v-.67a.6.6,0,0,1-.5-.17.59.59,0,0,1-.34-.17h-1.35c-.16,0-.16,0-.33-.17-.17,0-.17-.16-.34-.16l-.17-.17-.16-.17h-.17l-.17-.17c-.17-.17,0,0,0-.17h0v-.17h0l-.34-.16.17-.51c0-.33-.17-.5,0-.67a.59.59,0,0,1,.17-.34l.34-.33c.16-.17.33-.17.33-.34v-.17l.51-.67h1.68a.59.59,0,0,0,.5-.17,7.19,7.19,0,0,1,1.69,4.54,5.73,5.73,0,0,1-1.18,3.7c0-.16-.17-.33-.17-.5s-.17-.34-.17-.51v-1C233.52,204,233.52,204,233.52,203.83Zm-6.9,4.21c0,.17,0,.34-.17.34a.59.59,0,0,1-.17.33c0,.17-.17.17-.17.34a5.28,5.28,0,0,1-1.68-.67v-.68c0-.17,0-.17.17-.33v-.85c0-.16-.17-.33-.17-.5s-.17-.34-.17-.5-.16-.34-.16-.51-.17-.34-.17-.5v-.34h-.17a.17.17,0,0,1,.17-.17l.17-.17.16-.17v-.5h.17c.17-.17.17-.34.34-.5.17,0,.33-.17.5-.17h.51c.17,0,.17,0,.33.17h.34s.17,0,.17.16l.17.17a.17.17,0,0,1,.17.17c.16,0,.16,0,.33.17.17,0,.34.17.51.17.16.16.33.16.5.33s.34.34.51.34l.33.34c.17.16.17.16.17.33l-.34.34v.67a.36.36,0,0,1-.33.34.53.53,0,0,1-.34.17c-.17,0-.34.16-.5.33V207c0,.17-.17.17-.17.34s-.17.16-.34.33c-.17,0-.17.17-.33.17l-.34-.17h0Zm-3.53-5.38h0l-.34-.51h-.5c-.17,0-.34-.17-.51-.17s-.34-.17-.5-.33a.37.37,0,0,1-.34-.34,6.45,6.45,0,0,1,2.19-4.21c.16,0,.16,0,.16.17l.17.17.17.17a.59.59,0,0,0,.34.17l.17-.17v-.17l.33-.34-.17-.5h.68c.16,0,.16,0,.16.17l.17.17a.55.55,0,0,1,.17.33l.34-.17a.49.49,0,0,1,.33.17c.17,0,.17.17.34.17s.17.17.34.17a.17.17,0,0,1,0,.34l-.17.16h-.84a.17.17,0,0,0-.17.17l.5.17c-.16.17-.16.17-.33.17s-.17.17-.34.17V199l-.67.34v-.17h-.17v.17l.17.17h-.17l-.17.17a.59.59,0,0,0-.17.33v.68c0-.17-.16-.34-.33-.51a.62.62,0,0,0-.51-.17h-.33l.16.17h-1a.17.17,0,0,0-.17.17v.34c0,.16,0,.33.17.33,0,.17.16.17.33.17h.51c.16,0,.33-.17.5-.17,0,.17-.17.17-.17.34s-.17.17-.17.34h.17c.17,0,.17-.17.34,0,.17,0,.17.16.34.16l.33.34c.17.17.17.17.34.17l-.34.17-1.34.17Zm7.73-6.4c-.16,0-.33-.17-.5-.17h.34a7.11,7.11,0,0,1,1.17.68h-.16a.17.17,0,0,0-.17.17l-.17.16v.34l-.34.34h-1l-.16-.34.16-.5-.16-.17,1.34-.51C231.16,196.43,231,196.26,230.82,196.26Z" transform="translate(-0.45 -0.45)"/></g></g><g id="shape5077-53"><path class="cls-22" d="M240.58,211.24h2.86V207a6.1,6.1,0,0,1,.5-2.36,7.3,7.3,0,0,1,1.18-1.85,7.56,7.56,0,0,1,1.85-1.34,5.37,5.37,0,0,1,2.36-.51,5.86,5.86,0,0,1,2.35.51,4.64,4.64,0,0,1,1.85,1.34,4.38,4.38,0,0,1,1.18,1.85,5.37,5.37,0,0,1,.51,2.36v4.21H240.58Zm4.21,0h8.74V207a4.92,4.92,0,0,0-.33-1.68,3.77,3.77,0,0,0-.84-1.35,10.77,10.77,0,0,0-1.35-1,5.89,5.89,0,0,0-1.68-.33,4.87,4.87,0,0,0-1.68.33,2.66,2.66,0,0,0-1.35,1,3.64,3.64,0,0,0-.84,1.35,5.91,5.91,0,0,0-.34,1.68v4.21Z" transform="translate(-0.45 -0.45)"/><path class="cls-14" d="M240.58,211.24h2.86V207a6.1,6.1,0,0,1,.5-2.36,7.3,7.3,0,0,1,1.18-1.85,7.56,7.56,0,0,1,1.85-1.34,5.37,5.37,0,0,1,2.36-.51,5.86,5.86,0,0,1,2.35.51,4.64,4.64,0,0,1,1.85,1.34,4.38,4.38,0,0,1,1.18,1.85,5.37,5.37,0,0,1,.51,2.36v4.21h2.86m-13.29,0h8.74V207a4.92,4.92,0,0,0-.33-1.68,3.77,3.77,0,0,0-.84-1.35,10.77,10.77,0,0,0-1.35-1,5.89,5.89,0,0,0-1.68-.33,4.87,4.87,0,0,0-1.68.33,2.66,2.66,0,0,0-1.35,1,3.64,3.64,0,0,0-.84,1.35,5.91,5.91,0,0,0-.34,1.68v4.21h-.33" transform="translate(-0.45 -0.45)"/></g><g id="shape5078-56"><rect class="cls-31" x="240.05" y="210.79" width="17.33" height="12.95"/></g><g id="shape5079-58"><path class="cls-25" d="M204.07,189v27.26h34v-7.57h3.2c-.17-13.13,10.6-9.93,10.6-9.93V189Zm23.72,23.05a9.93,9.93,0,1,1,9.92-9.93A10.05,10.05,0,0,1,227.79,212.08Z" transform="translate(-0.45 -0.45)"/></g></g><g id="shape5097-60"><rect class="cls-14" x="194.62" y="222.65" width="72" height="28.69"/><g class="cls-23"><text class="cls-32" transform="translate(200.91 234)">St<tspan class="cls-33" x="8.19" y="0">r</tspan><tspan x="11.63" y="0">ona wit</tspan><tspan class="cls-34" x="42.94" y="0">r</tspan><tspan x="46.54" y="0">y</tspan><tspan class="cls-35" x="51.27" y="0">n</tspan><tspan x="56.46" y="0">y </tspan><tspan x="10.25" y="12">p</tspan><tspan class="cls-33" x="15.62" y="12">r</tspan><tspan x="19.05" y="12">og</tspan><tspan class="cls-36" x="29.17" y="12">r</tspan><tspan x="32.5" y="12">amu </tspan><tspan x="7.98" y="24">Sha</tspan><tspan class="cls-37" x="23.01" y="24">r</tspan><tspan x="26.45" y="24">e</tspan><tspan class="cls-38" x="31.48" y="24">P</tspan><tspan x="36.65" y="24">oi</tspan><tspan class="cls-39" x="44.48" y="24">n</tspan><tspan x="49.75" y="24">t </tspan></text></g></g><g id="shape5100-64"><rect class="cls-14" x="262.12" y="119.99" width="81.51" height="28.69"/><g class="cls-23"><text class="cls-40" transform="translate(273.34 127.14)"><tspan class="cls-41">Z</tspan><tspan x="3.79" y="0">aso</tspan><tspan class="cls-42" x="15.23" y="0">b</tspan><tspan x="19.48" y="0">y publiczne:</tspan></text><text class="cls-43" transform="translate(279.13 136.74)">Ob<tspan class="cls-44" x="9.5" y="0">r</tspan><tspan x="12.13" y="0">a</tspan><tspan class="cls-45" x="15.96" y="0">z</tspan><tspan x="19.05" y="0">y wit</tspan><tspan class="cls-46" x="34.71" y="0">r</tspan><tspan x="37.54" y="0">yn, </tspan><tspan x="4.13" y="9.6">CSS, sk</tspan><tspan class="cls-46" x="26.31" y="9.6">r</tspan><tspan x="29.14" y="9.6">y</tspan><tspan class="cls-47" x="32.76" y="9.6">p</tspan><tspan x="36.93" y="9.6">ty </tspan></text></g></g><g id="shape5111-69"><g id="shadow5111-70"><g id="lend4-5" data-name="lend4"><path class="cls-27" d="M197.55,174.52l6.52,4.42-7.44,2.56.92-7" transform="translate(-0.45 -0.45)"/></g><path class="cls-27" d="M127.57,168.81" transform="translate(-0.45 -0.45)"/></g><g id="lend4-6" data-name="lend4"><path class="cls-28" d="M197.55,174.52l6.52,4.42-7.44,2.56.92-7" transform="translate(-0.45 -0.45)"/></g><path class="cls-28" d="M127.57,168.81" transform="translate(-0.45 -0.45)"/></g><g id="shape5112-81"><g id="lend4-7" data-name="lend4"><path class="cls-28" d="M238.74,177.13l-7.66,1.81,3.14-7.21,4.52,5.4" transform="translate(-0.45 -0.45)"/></g><path class="cls-28" d="M262.06,153.07" transform="translate(-0.45 -0.45)"/></g><g id="shape5113-86"><rect class="cls-14" x="73.12" y="267.49" width="40.75" height="20"/><text class="cls-32" transform="translate(64.71 280.5)">U<tspan class="cls-48" x="6.53" y="0">ż</tspan><tspan class="cls-49" x="10.43" y="0">y</tspan><tspan x="15.21" y="0">t</tspan><tspan class="cls-50" x="18.68" y="0">k</tspan><tspan class="cls-51" x="23.2" y="0">o</tspan><tspan x="28.55" y="0">wnicy</tspan></text></g><g id="group5115-89"><g id="group5054-90"><g id="shape5055-91"><path class="cls-26" d="M46.44,51.28A27.23,27.23,0,0,0,38,54.37a18.1,18.1,0,0,0-6.19,5.31,22.32,22.32,0,0,0-4,7.07,28.4,28.4,0,0,0-1.33,8.85A25.35,25.35,0,0,0,27,81.35c.45,1.77.89,4,1.33,5.75H19A13,13,0,0,1,12,85.33,20.05,20.05,0,0,1,5.76,80.9a18.38,18.38,0,0,1-4-6.19A19.88,19.88,0,0,1,.45,67.64,21.56,21.56,0,0,1,3.1,56.58,16,16,0,0,1,12,49.51a6.18,6.18,0,0,1,2.65-.89,6.61,6.61,0,0,1,3.1-.44V45.53a23.05,23.05,0,0,1,1.77-9.29,29.5,29.5,0,0,1,4.86-8A23.15,23.15,0,0,1,31.85,23a21.82,21.82,0,0,1,9.28-1.76h2.66c.88,0,2.21.44,3.09.44a28.55,28.55,0,0,0,3.1.88l2.65,1.33a31.51,31.51,0,0,1,4.87-6.63,33.25,33.25,0,0,1,6.19-4.87,20.2,20.2,0,0,1,7.07-3.09,24.94,24.94,0,0,1,8-1.33,30.75,30.75,0,0,1,11.06,2.21,43.57,43.57,0,0,1,9.73,5.75c2.65,2.65,5.3,5.31,7.07,8.84a32.35,32.35,0,0,1,3.54,11.06,21.66,21.66,0,0,0-5.31.44A15.89,15.89,0,0,0,100,38a46.11,46.11,0,0,0-4-4.86,36.3,36.3,0,0,0-5.31-3.54,25.27,25.27,0,0,0-6.19-2.21,29.35,29.35,0,0,0-6.19-.89,28.08,28.08,0,0,0-10.61,1.77,39,39,0,0,0-9.29,5.31,41.59,41.59,0,0,0-7.08,8C48.65,44.2,47.33,47.74,46.44,51.28Z" transform="translate(-0.45 -0.45)"/></g><g id="shape5056-93"><path class="cls-25" d="M128.25,65a9.41,9.41,0,0,1,5.31,1.33,10.55,10.55,0,0,1,4,3.53,10.6,10.6,0,0,1,2.65,4.87,22.53,22.53,0,0,1,.88,5.75,26,26,0,0,1-.88,5.75,18.34,18.34,0,0,1-3.1,4.86,17.23,17.23,0,0,1-4.42,3.54A11.85,11.85,0,0,1,127.36,96H52.63a24,24,0,0,1-8.4-1.33,15,15,0,0,1-6.19-4,18.48,18.48,0,0,1-4-6.19,25.64,25.64,0,0,1-1.33-8.4,14.49,14.49,0,0,1,1.77-7.52c.88-2.21,2.65-4,4.42-5.75a28.33,28.33,0,0,1,6.19-3.54,20.77,20.77,0,0,1,7.52-1.33A20.69,20.69,0,0,1,54.4,50.4a16.58,16.58,0,0,1,4-6.64,32.9,32.9,0,0,1,5.75-5.3,20.22,20.22,0,0,1,7.07-3.1,34.6,34.6,0,0,1,7.08-.88,21.92,21.92,0,0,1,11.94,3.09A26.74,26.74,0,0,1,99.06,46a14.82,14.82,0,0,1,5.31-1.77,25,25,0,0,1,5.31-.45,18.05,18.05,0,0,1,8.4,1.77A20.19,20.19,0,0,1,124.27,50a16.69,16.69,0,0,1,4,6.64,25.82,25.82,0,0,1,1.33,8.4Z" transform="translate(-0.45 -0.45)"/></g></g><g id="shape2-95"><rect class="cls-14" x="101.65" y="38.99" width="42.56" height="40.64"/><g class="cls-52"><g id="mfid27"><path class="cls-1" d="M127.75,75.84a5.09,5.09,0,0,1-5.16-5.16,11.87,11.87,0,0,1-6.12-5.8,5.26,5.26,0,0,1-4.84-5.16,5.52,5.52,0,0,1,4.84-5.16,11.91,11.91,0,0,1,6.12-5.8,5.1,5.1,0,0,1,5.16-5.16,5.54,5.54,0,0,1,5.16,5.16,10.25,10.25,0,0,1,5.8,5.8c2.91.33,5.16,2.58,5.16,5.16,0,2.9-2.25,4.84-5.16,5.16a10.22,10.22,0,0,1-5.8,5.8A5.53,5.53,0,0,1,127.75,75.84ZM120,63.59a8.27,8.27,0,0,0,3.87,3.55,5.34,5.34,0,0,1,3.87-1.61,5.94,5.94,0,0,1,3.87,1.61,6.44,6.44,0,0,0,3.55-3.55,5.43,5.43,0,0,1,0-7.74,6.39,6.39,0,0,0-3.55-3.54,6,6,0,0,1-3.87,1.61,5.38,5.38,0,0,1-3.87-1.61A8.2,8.2,0,0,0,120,55.85a4.83,4.83,0,0,1,0,7.74Z" transform="translate(-0.45 -0.45)"/></g><g id="mfid28"><path class="cls-53" d="M126.46,76.17a2,2,0,0,0,1.29.32,5.9,5.9,0,0,0,5.8-5.16,12.66,12.66,0,0,0,5.81-5.8,5.85,5.85,0,0,0,0-11.61,12.68,12.68,0,0,0-5.81-5.81,5.9,5.9,0,0,0-5.8-5.16,1.9,1.9,0,0,0-1.29.33m0,11.28h1.29A5.94,5.94,0,0,0,131.62,53a6.32,6.32,0,0,1,2.9,2.9,5.46,5.46,0,0,0,0,7.74,6.27,6.27,0,0,1-2.9,2.9,6,6,0,0,0-3.87-1.61h-1.29Zm12.25,9.68h-.32a13.27,13.27,0,0,1-6.45,6.12v.32a4.27,4.27,0,0,1-4.19,4.2h-1.29V66.49c.32,0,1-.32,1.29-.32a4.39,4.39,0,0,1,3.55,1.94,8.88,8.88,0,0,0,4.83-4.84,4.22,4.22,0,0,1,0-7.09,8.88,8.88,0,0,0-4.83-4.84,4.38,4.38,0,0,1-3.55,1.93,2,2,0,0,1-1.29-.32V44.57h1.29a4.26,4.26,0,0,1,4.19,4.19v.32a12.61,12.61,0,0,1,6.45,6.45h.32a4.56,4.56,0,0,1,4.52,4.19A4.86,4.86,0,0,1,138.71,64.24Z" transform="translate(-0.45 -0.45)"/></g><path class="cls-53" d="M126.53,39.1l-24.18,4.19V76.18l24.18,4.2Z" transform="translate(-0.45 -0.45)"/><g id="mfid29"><path class="cls-1" d="M114.85,51.34a4.18,4.18,0,0,0-4.19,3.22,4.6,4.6,0,0,0,1.61,5.16c1.29,1,4.2,1.94,3.23,3.87a3.06,3.06,0,0,1-2.26.65,4.35,4.35,0,0,1-2.9-1.62v2.91c0,.64,0,.64.64.64,2.26,1.29,6.45,1.29,7.42-1.93a4.84,4.84,0,0,0-.32-4.2,11.43,11.43,0,0,0-3.23-2.58,3.22,3.22,0,0,1-1.61-1.28c0-.65,0-1.29.65-1.62,1-1.29,3.22-.32,4.19.33V52c0-.32,0-.32-.32-.32a9,9,0,0,0-2.91-.32" transform="translate(-0.45 -0.45)"/></g></g><rect class="cls-14" x="101.65" y="38.99" width="42.56" height="40.64"/></g><g id="shape5098-98"><rect class="cls-14" x="34.87" y="61.49" width="72" height="28.69"/><g class="cls-23"><text class="cls-24" transform="translate(44.87 72.24)">Sha<tspan class="cls-54" x="18.04" y="0">r</tspan><tspan x="22.17" y="0">e</tspan><tspan class="cls-55" x="28.21" y="0">P</tspan><tspan x="34.4" y="0">oi</tspan><tspan class="cls-56" x="43.8" y="0">n</tspan><tspan x="50.13" y="0">t </tspan><tspan x="10.68" y="14.4">Online </tspan></text></g></g></g><g id="shape4884-102"><g id="shadow4884-103"><g id="lend4-8" data-name="lend4"><path class="cls-27" d="M307.33,68.51l7.38,2.74-6.62,4.26-.76-7" transform="translate(-0.45 -0.45)"/></g><path class="cls-27" d="M166.28,87.38" transform="translate(-0.45 -0.45)"/></g><g id="lend4-9" data-name="lend4"><path class="cls-28" d="M307.33,68.51l7.38,2.74-6.62,4.26-.76-7" transform="translate(-0.45 -0.45)"/></g><path class="cls-28" d="M166.28,87.38" transform="translate(-0.45 -0.45)"/></g><g id="shape4885-114"><rect class="cls-14" x="217.12" y="38.08" width="91.75" height="30.16"/><g class="cls-23"><text class="cls-32" transform="translate(210.44 50.16)">Usłu<tspan class="cls-57" x="18.52" y="0">g</tspan><tspan x="23.09" y="0">a CDN pr</tspan><tspan class="cls-58" x="59.65" y="0">z</tspan><tspan x="63.44" y="0">e</tspan><tspan class="cls-33" x="68.48" y="0">k</tspan><tspan x="73.15" y="0">a</tspan><tspan class="cls-59" x="78.09" y="0">z</tspan><tspan x="82.02" y="0">uje </tspan><tspan class="cls-60" x="13.8" y="12">z</tspan><tspan x="17.65" y="12">aso</tspan><tspan class="cls-61" x="31.95" y="12">b</tspan><tspan x="37.27" y="12">y </tspan><tspan class="cls-58" x="44.26" y="12">z</tspan><tspan x="48.05" y="12">e ź</tspan><tspan class="cls-33" x="59.32" y="12">r</tspan><tspan x="62.75" y="12">ódeł </tspan></text></g></g><rect class="cls-14" x="131.21" y="106.49" width="40.75" height="24.63"/><g class="cls-23"><text class="cls-32" transform="translate(140.04 115.8)">Ź<tspan class="cls-33" x="4.78" y="0">r</tspan><tspan x="8.21" y="0">ódło </tspan><tspan x="-6.3" y="12">publiczne </tspan></text></g><g id="shape5081-123"><path class="cls-26" d="M76,137.32h9.63V113.78H95.89l-4.37-4.37H76Z" transform="translate(-0.45 -0.45)"/></g><g id="group5082-125"><g id="group5083-126"><g id="shape5084-127"><path class="cls-25" d="M87.55,115.49v25.63h19.27V123.54h-8v-8.05Z" transform="translate(-0.45 -0.45)"/></g><g id="shape5085-129"><path class="cls-26" d="M100.36,122h6.46l-6.46-6.36Z" transform="translate(-0.45 -0.45)"/></g></g><g id="shape5086-131"><rect class="cls-3" x="88.99" y="136.3" width="15.49" height="1.59"/></g><g id="shape5087-133"><rect class="cls-62" x="88.99" y="133.13" width="15.49" height="1.59"/></g><g id="shape5088-135"><rect class="cls-3" x="88.99" y="129.85" width="7.94" height="1.59"/></g><g id="shape5089-137"><rect class="cls-31" x="98.52" y="129.85" width="5.96" height="1.59"/></g><g id="shape5090-139"><rect class="cls-3" x="88.99" y="126.67" width="15.49" height="1.59"/></g><g id="shape5091-141"><rect class="cls-3" x="88.99" y="123.49" width="4.27" height="1.59"/></g></g><g id="shape5099-143"><rect class="cls-14" x="50.37" y="138.2" width="81.51" height="30.16"/><g class="cls-23"><g class="cls-23"><path class="cls-63" d="M73.8,147.48a4.44,4.44,0,0,1-.21,1.43,2.43,2.43,0,0,1-1.6,1.62,4.45,4.45,0,0,1-1.4.2H69.26a.37.37,0,0,1-.22-.08.33.33,0,0,1-.1-.26v-5.64a.33.33,0,0,1,.1-.26.37.37,0,0,1,.22-.08h1.43a4,4,0,0,1,1.38.21,2.64,2.64,0,0,1,1,.61,2.56,2.56,0,0,1,.58,1A3.66,3.66,0,0,1,73.8,147.48Zm-.88,0a3.21,3.21,0,0,0-.13-.95,2,2,0,0,0-.4-.77,1.91,1.91,0,0,0-.68-.5,2.75,2.75,0,0,0-1.07-.18h-.86V150h.87a3,3,0,0,0,1-.15,1.7,1.7,0,0,0,.69-.47,2,2,0,0,0,.42-.78A4.13,4.13,0,0,0,72.92,147.51Z" transform="translate(-0.45 -0.45)"/><path class="cls-63" d="M79.09,148.36a3.43,3.43,0,0,1-.14,1,2.43,2.43,0,0,1-.42.78,1.93,1.93,0,0,1-.71.51,2.8,2.8,0,0,1-1.92,0,1.7,1.7,0,0,1-.67-.47,2,2,0,0,1-.4-.74,3.87,3.87,0,0,1,0-2,2.43,2.43,0,0,1,.42-.78,1.93,1.93,0,0,1,.71-.51,2.45,2.45,0,0,1,1-.18,2.68,2.68,0,0,1,.94.16,1.8,1.8,0,0,1,.67.47,2.1,2.1,0,0,1,.41.75A3.35,3.35,0,0,1,79.09,148.36Zm-.83.06a3.64,3.64,0,0,0-.07-.68,1.87,1.87,0,0,0-.22-.56,1.13,1.13,0,0,0-.41-.37,1.3,1.3,0,0,0-.65-.14,1.46,1.46,0,0,0-.62.12,1.17,1.17,0,0,0-.43.36,1.85,1.85,0,0,0-.25.55,3,3,0,0,0-.08.7,2.87,2.87,0,0,0,.07.67,1.56,1.56,0,0,0,.22.56,1,1,0,0,0,.42.37,1.28,1.28,0,0,0,.65.14,1.44,1.44,0,0,0,.61-.12,1.17,1.17,0,0,0,.43-.36,1.64,1.64,0,0,0,.25-.55A3,3,0,0,0,78.26,148.42Z" transform="translate(-0.45 -0.45)"/><path class="cls-63" d="M83.89,150.6a.14.14,0,0,1,0,.07.18.18,0,0,1-.07.05l-.13,0h-.43l-.14,0-.1,0-.06-.08-1.86-2.43v2.44s0,0,0,.06a.1.1,0,0,1-.06.05l-.12,0h-.4l-.12,0a.18.18,0,0,1-.07-.05s0,0,0-.06v-6.53a.13.13,0,0,1,0-.06.18.18,0,0,1,.07-.05.35.35,0,0,1,.12,0h.4a.35.35,0,0,1,.12,0,.1.1,0,0,1,.06.05.07.07,0,0,1,0,.06v4l1.66-1.83.09-.08a.23.23,0,0,1,.1-.05.32.32,0,0,1,.14,0h.41l.13,0a.16.16,0,0,1,.08,0,.14.14,0,0,1,0,.07.27.27,0,0,1,0,.12l-.11.13L82,148.05l1.79,2.32.09.14A.16.16,0,0,1,83.89,150.6Z" transform="translate(-0.45 -0.45)"/><path class="cls-63" d="M88.46,150.61a.11.11,0,0,1,0,.06.1.1,0,0,1-.06.05l-.11,0h-.36l-.11,0a.1.1,0,0,1-.06-.05s0,0,0-.06V150a2.75,2.75,0,0,1-.74.6,1.61,1.61,0,0,1-.75.19,1.81,1.81,0,0,1-.74-.14,1.26,1.26,0,0,1-.48-.4,1.6,1.6,0,0,1-.27-.59,3.69,3.69,0,0,1-.08-.81v-2.67a.14.14,0,0,1,0-.06.1.1,0,0,1,.06-.05.28.28,0,0,1,.13,0h.39a.25.25,0,0,1,.13,0,.1.1,0,0,1,.06.05.07.07,0,0,1,0,.06v2.56a2.59,2.59,0,0,0,.06.62,1.07,1.07,0,0,0,.17.39A.8.8,0,0,0,86,150a.88.88,0,0,0,.41.09,1,1,0,0,0,.6-.22,3.12,3.12,0,0,0,.64-.63v-3.07a.14.14,0,0,1,0-.06.1.1,0,0,1,.06-.05.28.28,0,0,1,.13,0h.39a.21.21,0,0,1,.12,0,.18.18,0,0,1,.07.05.14.14,0,0,1,0,.06Z" transform="translate(-0.45 -0.45)"/><path class="cls-63" d="M96.47,150.61a.11.11,0,0,1,0,.06.15.15,0,0,1-.06.05l-.13,0h-.39l-.13,0a.1.1,0,0,1-.06-.05s0,0,0-.06v-2.67a2.59,2.59,0,0,0,0-.51,1.2,1.2,0,0,0-.16-.4.72.72,0,0,0-.27-.25.8.8,0,0,0-.39-.09.89.89,0,0,0-.56.22,3.71,3.71,0,0,0-.62.63v3.07s0,0,0,.06a.1.1,0,0,1-.06.05l-.13,0H93l-.12,0a.13.13,0,0,1-.07-.05s0,0,0-.06v-2.67a2,2,0,0,0-.06-.51,1.2,1.2,0,0,0-.16-.4.72.72,0,0,0-.27-.25.8.8,0,0,0-.39-.09.91.91,0,0,0-.56.22,3.36,3.36,0,0,0-.61.63v3.07a.11.11,0,0,1,0,.06.18.18,0,0,1-.07.05l-.12,0h-.4l-.12,0a.1.1,0,0,1-.06-.05.11.11,0,0,1,0-.06v-4.4a.13.13,0,0,1,0-.06.1.1,0,0,1,.06-.05.21.21,0,0,1,.12,0h.35a.16.16,0,0,1,.11,0,.1.1,0,0,1,.06.05.14.14,0,0,1,0,.06v.58a2.55,2.55,0,0,1,.72-.6,1.47,1.47,0,0,1,1.19-.13,1.39,1.39,0,0,1,.39.17,1.24,1.24,0,0,1,.28.28,1.68,1.68,0,0,1,.2.35,3.79,3.79,0,0,1,.41-.4,2.7,2.7,0,0,1,.38-.27,1.54,1.54,0,0,1,.36-.15,1.41,1.41,0,0,1,.35,0,1.52,1.52,0,0,1,.71.15,1.31,1.31,0,0,1,.47.4,1.6,1.6,0,0,1,.25.58,3.29,3.29,0,0,1,.08.71Z" transform="translate(-0.45 -0.45)"/><path class="cls-63" d="M101.69,148.22a.31.31,0,0,1-.1.27.33.33,0,0,1-.22.08H98.48a2.62,2.62,0,0,0,.07.66,1.18,1.18,0,0,0,.25.5,1.1,1.1,0,0,0,.45.33,1.84,1.84,0,0,0,.67.11,3.15,3.15,0,0,0,.56,0l.42-.12.3-.11a.35.35,0,0,1,.17,0h.06a.1.1,0,0,1,0,.05l0,.1v.26a.25.25,0,0,0,0,.08l0,.07a.1.1,0,0,1,0,.05.61.61,0,0,1-.16.09l-.34.12a4.53,4.53,0,0,1-.49.11,3.65,3.65,0,0,1-.59,0,2.75,2.75,0,0,1-1-.15,1.69,1.69,0,0,1-.68-.45,1.83,1.83,0,0,1-.42-.75,3.27,3.27,0,0,1-.14-1,3.23,3.23,0,0,1,.14-1,2.28,2.28,0,0,1,.42-.77,1.88,1.88,0,0,1,.67-.48,2.21,2.21,0,0,1,.87-.17,2.17,2.17,0,0,1,.89.17,1.57,1.57,0,0,1,.59.45,1.77,1.77,0,0,1,.35.65,3.1,3.1,0,0,1,.11.81Zm-.81-.24a1.49,1.49,0,0,0-.29-1,1.06,1.06,0,0,0-.88-.36,1.08,1.08,0,0,0-.52.12,1.1,1.1,0,0,0-.38.29,1.55,1.55,0,0,0-.24.44,2.09,2.09,0,0,0-.09.51Z" transform="translate(-0.45 -0.45)"/><path class="cls-63" d="M106.7,150.61a.11.11,0,0,1,0,.06.13.13,0,0,1-.07.05l-.12,0h-.39l-.12,0a.13.13,0,0,1-.07-.05.11.11,0,0,1,0-.06V148a2.41,2.41,0,0,0-.06-.6,1.21,1.21,0,0,0-.17-.4.71.71,0,0,0-.29-.25.88.88,0,0,0-.41-.09,1,1,0,0,0-.61.22,3.11,3.11,0,0,0-.63.63v3.07a.11.11,0,0,1,0,.06.1.1,0,0,1-.06.05l-.13,0h-.39l-.13,0a.1.1,0,0,1-.06-.05.11.11,0,0,1,0-.06v-4.4a.14.14,0,0,1,0-.06.1.1,0,0,1,.06-.05.18.18,0,0,1,.11,0h.36a.18.18,0,0,1,.11,0l.05.05a.07.07,0,0,1,0,.06v.58a2.75,2.75,0,0,1,.74-.6,1.62,1.62,0,0,1,.75-.2,1.65,1.65,0,0,1,.74.15,1.26,1.26,0,0,1,.48.4,1.82,1.82,0,0,1,.27.58,3.76,3.76,0,0,1,.08.81Z" transform="translate(-0.45 -0.45)"/><path class="cls-63" d="M110.36,150.29a1.27,1.27,0,0,1,0,.22.17.17,0,0,1-.06.12.31.31,0,0,1-.12.08l-.17,0-.22,0h-.22a1.74,1.74,0,0,1-.59-.09,1,1,0,0,1-.4-.27,1.08,1.08,0,0,1-.22-.47,2.52,2.52,0,0,1-.07-.66v-2.56h-.62a.14.14,0,0,1-.12-.08.56.56,0,0,1,0-.26.66.66,0,0,1,0-.15.81.81,0,0,1,0-.11s0,0,0-.06h.69V145a.13.13,0,0,1,0-.06.1.1,0,0,1,.07,0,.34.34,0,0,1,.12,0h.4l.12,0a.1.1,0,0,1,.06,0,.14.14,0,0,1,0,.06v1.05h1.2s0,0,0,.06a.81.81,0,0,1,0,.11.66.66,0,0,1,0,.15.56.56,0,0,1,0,.26.14.14,0,0,1-.12.08h-1.13v2.45a1.35,1.35,0,0,0,.14.68.49.49,0,0,0,.48.23.65.65,0,0,0,.2,0l.15,0,.12-.05a.15.15,0,0,1,.09,0h0a.07.07,0,0,1,0,.05.64.64,0,0,1,0,.09A.66.66,0,0,1,110.36,150.29Z" transform="translate(-0.45 -0.45)"/><path class="cls-63" d="M113.43,150.73l-.59,1.62a.24.24,0,0,1-.15.12,1.49,1.49,0,0,1-.36,0h-.21a.33.33,0,0,1-.12-.05.1.1,0,0,1,0-.07.17.17,0,0,1,0-.12l.61-1.53a.24.24,0,0,1-.09-.06.31.31,0,0,1,0-.1l-1.57-4.2a.62.62,0,0,1,0-.16.13.13,0,0,1,0-.09.32.32,0,0,1,.13-.05h.46a.23.23,0,0,1,.13,0,.16.16,0,0,1,.08.05,1,1,0,0,1,0,.1l1.26,3.53h0l1.21-3.55a.31.31,0,0,1,.07-.12.33.33,0,0,1,.13,0h.46a.32.32,0,0,1,.13.05.1.1,0,0,1,0,.09.49.49,0,0,1,0,.15Z" transform="translate(-0.45 -0.45)"/><path class="cls-63" d="M70.78,156.73a.51.51,0,0,1-.11.38.55.55,0,0,1-.39.11.61.61,0,0,1-.39-.1.54.54,0,0,1-.11-.38.55.55,0,0,1,.11-.39.57.57,0,0,1,.4-.1.4.4,0,0,1,.49.48Zm-.09,5.88a.11.11,0,0,1,0,.06.18.18,0,0,1-.07.05l-.12,0h-.39l-.13,0a.1.1,0,0,1-.06-.05.11.11,0,0,1,0-.06v-4.4a.14.14,0,0,1,0-.06.1.1,0,0,1,.06-.05l.13,0h.39l.12,0a.18.18,0,0,1,.07.05.14.14,0,0,1,0,.06Z" transform="translate(-0.45 -0.45)"/><path class="cls-63" d="M77.24,162.39c0,.06,0,.11,0,.16a.51.51,0,0,1,0,.1.1.1,0,0,1,0,.06l-.08,0h-2.7a.21.21,0,0,1-.17-.07.33.33,0,0,1-.07-.23v-.16c0-.05,0-.09,0-.13l0-.1a.67.67,0,0,1,.06-.12l.08-.14,1.94-3H74.36a.15.15,0,0,1-.13-.08.56.56,0,0,1,0-.26.66.66,0,0,1,0-.15.18.18,0,0,1,0-.11.1.1,0,0,1,0-.06H77a.18.18,0,0,1,.07.05.19.19,0,0,1,0,.09.44.44,0,0,1,0,.13v.16c0,.05,0,.09,0,.13l0,.11a.61.61,0,0,1,0,.12l-.09.14-1.93,3h2.06l.07,0s0,0,.06.05a.66.66,0,0,1,0,.11S77.24,162.33,77.24,162.39Z" transform="translate(-0.45 -0.45)"/><path class="cls-63" d="M81.53,162.61a.1.1,0,0,1,0,.09.23.23,0,0,1-.1,0l-.2,0-.21,0-.11,0a.12.12,0,0,1,0-.09v-.44a2.07,2.07,0,0,1-.64.48,1.65,1.65,0,0,1-.75.17,2.08,2.08,0,0,1-.63-.09,1.24,1.24,0,0,1-.48-.26,1.21,1.21,0,0,1-.31-.42,1.45,1.45,0,0,1-.11-.57,1.32,1.32,0,0,1,.15-.64,1.35,1.35,0,0,1,.44-.45,2.17,2.17,0,0,1,.69-.28,4.38,4.38,0,0,1,.93-.09h.6v-.34a2,2,0,0,0,0-.45.83.83,0,0,0-.18-.32.76.76,0,0,0-.31-.2,1.51,1.51,0,0,0-.46-.06,1.81,1.81,0,0,0-.54.07l-.41.15-.3.16a.38.38,0,0,1-.18.07l-.07,0a.1.1,0,0,1,0-.06.24.24,0,0,1,0-.1.53.53,0,0,1,0-.13.5.5,0,0,1,0-.19.23.23,0,0,1,.08-.14,1.13,1.13,0,0,1,.23-.15,2.18,2.18,0,0,1,.37-.15,2.8,2.8,0,0,1,.46-.12,2.73,2.73,0,0,1,.5,0,2.66,2.66,0,0,1,.8.11,1.25,1.25,0,0,1,.54.32,1.14,1.14,0,0,1,.3.51,2.63,2.63,0,0,1,.09.72Zm-.8-2H80a2.42,2.42,0,0,0-.57,0,1.1,1.1,0,0,0-.41.17.66.66,0,0,0-.24.26.8.8,0,0,0-.07.36A.7.7,0,0,0,79,162a.81.81,0,0,0,.6.2,1.09,1.09,0,0,0,.59-.16,2.67,2.67,0,0,0,.57-.49Z" transform="translate(-0.45 -0.45)"/><path class="cls-63" d="M89.09,158.2a.31.31,0,0,1,0,.09,1,1,0,0,0,0,.12l-1.3,4.17a.19.19,0,0,1,0,.09.19.19,0,0,1-.09.05.35.35,0,0,1-.16,0H87l-.17,0a.19.19,0,0,1-.09-.05.25.25,0,0,1,0-.09l-.92-3.19v0l-.86,3.19a.19.19,0,0,1,0,.09.31.31,0,0,1-.1.05.38.38,0,0,1-.16,0h-.5l-.15,0a.19.19,0,0,1-.09-.05.26.26,0,0,1,0-.09l-1.28-4.17,0-.12s0-.06,0-.09a.14.14,0,0,1,0-.07l.07,0,.12,0h.41l.13,0a.18.18,0,0,1,.07,0l0,.08,1.06,3.62v0l1-3.62,0-.08a.18.18,0,0,1,.07,0l.12,0H86l.12,0a.1.1,0,0,1,.06,0l0,.07,1,3.63v0l1-3.62,0-.08a.18.18,0,0,1,.07,0l.13,0h.39l.11,0a.15.15,0,0,1,.06,0A.14.14,0,0,1,89.09,158.2Z" transform="translate(-0.45 -0.45)"/><path class="cls-63" d="M93.29,162.61a.1.1,0,0,1,0,.09l-.11,0-.2,0-.2,0a.23.23,0,0,1-.11,0,.12.12,0,0,1,0-.09v-.44a2.11,2.11,0,0,1-.65.48,1.59,1.59,0,0,1-.75.17,2,2,0,0,1-.62-.09,1.24,1.24,0,0,1-.48-.26,1.1,1.1,0,0,1-.31-.42,1.45,1.45,0,0,1-.11-.57,1.32,1.32,0,0,1,.15-.64,1.26,1.26,0,0,1,.44-.45,2.17,2.17,0,0,1,.69-.28,4.28,4.28,0,0,1,.92-.09h.61v-.34a2,2,0,0,0,0-.45.83.83,0,0,0-.18-.32.76.76,0,0,0-.31-.2,1.58,1.58,0,0,0-.47-.06,1.74,1.74,0,0,0-.53.07l-.42.15a2.35,2.35,0,0,0-.29.16.38.38,0,0,1-.18.07l-.07,0a.1.1,0,0,1,0-.06.15.15,0,0,1,0-.1.53.53,0,0,1,0-.13,1,1,0,0,1,0-.19.24.24,0,0,1,.09-.14,1.33,1.33,0,0,1,.22-.15,2.59,2.59,0,0,1,.37-.15,3.09,3.09,0,0,1,.46-.12,2.94,2.94,0,0,1,.51,0,2.66,2.66,0,0,1,.8.11,1.32,1.32,0,0,1,.54.32,1.23,1.23,0,0,1,.3.51,2.63,2.63,0,0,1,.09.72Zm-.8-2H91.8a2.56,2.56,0,0,0-.58,0,1.12,1.12,0,0,0-.4.17.66.66,0,0,0-.24.26.8.8,0,0,0-.07.36.73.73,0,0,0,.21.54.85.85,0,0,0,.61.2,1.11,1.11,0,0,0,.59-.16,2.67,2.67,0,0,0,.57-.49Z" transform="translate(-0.45 -0.45)"/><path class="cls-63" d="M97.34,158.5a1,1,0,0,1,0,.18.37.37,0,0,1,0,.12l0,.06-.06,0-.1,0-.13,0-.16,0h-.19a.67.67,0,0,0-.24,0,1.07,1.07,0,0,0-.24.17,1.54,1.54,0,0,0-.27.29c-.1.13-.2.28-.32.46v2.89s0,0,0,.06a.18.18,0,0,1-.07.05l-.12,0H95l-.12,0a.1.1,0,0,1-.06-.05s0,0,0-.06v-4.4a.13.13,0,0,1,0-.06.1.1,0,0,1,.06-.05.2.2,0,0,1,.11,0h.36a.16.16,0,0,1,.11,0,.1.1,0,0,1,.06.05.14.14,0,0,1,0,.06v.64a3.4,3.4,0,0,1,.34-.43,1.39,1.39,0,0,1,.3-.26.79.79,0,0,1,.28-.13,1.26,1.26,0,0,1,.28,0h.14l.17,0,.16,0a.3.3,0,0,1,.1.05l0,0a.17.17,0,0,0,0,.05v.1A1,1,0,0,1,97.34,158.5Z" transform="translate(-0.45 -0.45)"/><path class="cls-63" d="M100.54,162.29a1.27,1.27,0,0,1,0,.22.17.17,0,0,1-.06.12.35.35,0,0,1-.11.08l-.18,0-.22,0h-.22a1.74,1.74,0,0,1-.59-.09,1,1,0,0,1-.4-.27,1.08,1.08,0,0,1-.22-.47,2.52,2.52,0,0,1-.07-.66v-2.56h-.62a.14.14,0,0,1-.12-.08.56.56,0,0,1,0-.26.66.66,0,0,1,0-.15.81.81,0,0,1,0-.11s0,0,.05-.06h.69V157a.1.1,0,0,1,.08-.11.34.34,0,0,1,.12,0h.4a.34.34,0,0,1,.12,0,.1.1,0,0,1,.06,0,.07.07,0,0,1,0,.06v1.05h1.2s0,0,0,.06a.81.81,0,0,1,0,.11.66.66,0,0,1,0,.15.56.56,0,0,1,0,.26.14.14,0,0,1-.12.08H99.25v2.45a1.35,1.35,0,0,0,.14.68.5.5,0,0,0,.48.23.65.65,0,0,0,.2,0l.15,0,.12-.05a.15.15,0,0,1,.09,0h0a.07.07,0,0,1,0,.05.64.64,0,0,1,0,.09A.66.66,0,0,1,100.54,162.29Z" transform="translate(-0.45 -0.45)"/><path class="cls-63" d="M105.59,160.36a3.12,3.12,0,0,1-.14,1,2.1,2.1,0,0,1-.42.78,1.89,1.89,0,0,1-.7.51,2.48,2.48,0,0,1-1,.18,2.52,2.52,0,0,1-.95-.16,1.7,1.7,0,0,1-.67-.47,2,2,0,0,1-.4-.74,3.73,3.73,0,0,1,0-2,2.1,2.1,0,0,1,.42-.78,1.89,1.89,0,0,1,.7-.51,2.48,2.48,0,0,1,1-.18,2.74,2.74,0,0,1,1,.16,1.89,1.89,0,0,1,.67.47,2.08,2.08,0,0,1,.4.75A3.35,3.35,0,0,1,105.59,160.36Zm-.83.06a3,3,0,0,0-.07-.68,1.46,1.46,0,0,0-.22-.56,1.13,1.13,0,0,0-.41-.37,1.28,1.28,0,0,0-.65-.14,1.46,1.46,0,0,0-.62.12,1.36,1.36,0,0,0-.43.36,1.61,1.61,0,0,0-.24.55,2.53,2.53,0,0,0-.09.7,3.53,3.53,0,0,0,.07.67,1.77,1.77,0,0,0,.22.56,1.08,1.08,0,0,0,.42.37,1.28,1.28,0,0,0,.65.14A1.49,1.49,0,0,0,104,162a1.22,1.22,0,0,0,.42-.36,1.33,1.33,0,0,0,.25-.55A3,3,0,0,0,104.76,160.42Z" transform="translate(-0.45 -0.45)"/><path class="cls-63" d="M109.54,161.41a1.4,1.4,0,0,1-.12.6,1.33,1.33,0,0,1-.36.45,1.49,1.49,0,0,1-.55.27,2.5,2.5,0,0,1-.69.09,3.19,3.19,0,0,1-.45,0,3,3,0,0,1-.38-.1,1.6,1.6,0,0,1-.29-.11,1,1,0,0,1-.17-.11.47.47,0,0,1-.08-.14,1.44,1.44,0,0,1,0-.24.81.81,0,0,1,0-.16s0-.07,0-.1,0,0,0-.06h.07a.37.37,0,0,1,.15.06l.26.15a2.61,2.61,0,0,0,.37.14,1.43,1.43,0,0,0,.48.07,1.38,1.38,0,0,0,.37-.05.86.86,0,0,0,.29-.13.55.55,0,0,0,.19-.21.79.79,0,0,0,.06-.32.54.54,0,0,0-.09-.31,1.07,1.07,0,0,0-.25-.22,1.92,1.92,0,0,0-.35-.18l-.41-.15-.4-.19a1.83,1.83,0,0,1-.36-.26,1.36,1.36,0,0,1-.25-.36,1.28,1.28,0,0,1-.09-.5,1.21,1.21,0,0,1,.1-.5,1,1,0,0,1,.3-.41,1.43,1.43,0,0,1,.5-.29,2.1,2.1,0,0,1,.7-.11,2.07,2.07,0,0,1,.35,0,2.49,2.49,0,0,1,.32.08l.24.09a.83.83,0,0,1,.15.09l.07.07a.14.14,0,0,1,0,.07.64.64,0,0,1,0,.09v.27a.62.62,0,0,1,0,.1.09.09,0,0,1,0,.06l0,0a.28.28,0,0,1-.13-.06l-.21-.11-.31-.12a1.7,1.7,0,0,0-.41,0,1.28,1.28,0,0,0-.36,0,.8.8,0,0,0-.26.14.43.43,0,0,0-.15.2.7.7,0,0,0,0,.25.47.47,0,0,0,.1.32.93.93,0,0,0,.25.23,2,2,0,0,0,.36.18l.4.16a3,3,0,0,1,.41.18,1.36,1.36,0,0,1,.36.25,1.12,1.12,0,0,1,.35.84Zm-1.14-5.35a.27.27,0,0,1,.07-.08.2.2,0,0,1,.09-.06l.14,0h.2l.22,0a.23.23,0,0,1,.12,0,.11.11,0,0,1,0,.07.18.18,0,0,1,0,.09l-.89,1.14-.07.07a.18.18,0,0,1-.07.05l-.11,0h-.33a.15.15,0,0,1-.09,0s0,0,0-.06a.26.26,0,0,1,0-.1Z" transform="translate(-0.45 -0.45)"/><path class="cls-63" d="M113.85,161.94v.14a.87.87,0,0,1,0,.1l0,.08-.08.09a1.16,1.16,0,0,1-.21.15,1.27,1.27,0,0,1-.33.16,2.35,2.35,0,0,1-1.68,0,1.64,1.64,0,0,1-.61-.46,2.25,2.25,0,0,1-.38-.74,3.81,3.81,0,0,1-.13-1,3.62,3.62,0,0,1,.16-1.11,2.13,2.13,0,0,1,.44-.77,1.83,1.83,0,0,1,.65-.44,2.38,2.38,0,0,1,.81-.14,1.75,1.75,0,0,1,.4,0,2,2,0,0,1,.37.1,1.13,1.13,0,0,1,.29.15.84.84,0,0,1,.19.14l.08.09a.2.2,0,0,1,0,.08s0,.07,0,.11v.14a.58.58,0,0,1,0,.27.13.13,0,0,1-.11.07.26.26,0,0,1-.17-.08,1.91,1.91,0,0,0-.24-.17,1.64,1.64,0,0,0-.35-.18,1.26,1.26,0,0,0-.49-.08,1,1,0,0,0-.9.44,2.33,2.33,0,0,0-.31,1.3,3.22,3.22,0,0,0,.08.74,1.69,1.69,0,0,0,.24.54,1.05,1.05,0,0,0,.38.32,1.27,1.27,0,0,0,.52.1,1.44,1.44,0,0,0,.49-.08,2.56,2.56,0,0,0,.37-.2l.26-.19a.33.33,0,0,1,.16-.08.07.07,0,0,1,.06,0,.15.15,0,0,1,0,.06.37.37,0,0,1,0,.12A.86.86,0,0,1,113.85,161.94Zm-1.21-5.88a.24.24,0,0,1,.06-.08.33.33,0,0,1,.1-.06l.14,0h.2l.22,0a.23.23,0,0,1,.12,0,.11.11,0,0,1,0,.07.18.18,0,0,1,0,.09l-.89,1.14a.46.46,0,0,1-.07.07.18.18,0,0,1-.07.05l-.11,0H112s-.08,0-.09,0,0,0,0-.06a.16.16,0,0,1,0-.1Z" transform="translate(-0.45 -0.45)"/><path class="cls-63" d="M71,174.61s0,0,0,.06a.18.18,0,0,1-.07.05l-.11,0h-.36l-.11,0a.1.1,0,0,1-.06-.05s0,0,0-.06V174a2.75,2.75,0,0,1-.74.6,1.57,1.57,0,0,1-.74.19,1.78,1.78,0,0,1-.74-.14,1.29,1.29,0,0,1-.49-.4,1.78,1.78,0,0,1-.27-.59,3.69,3.69,0,0,1-.08-.81v-2.67a.14.14,0,0,1,0-.06.1.1,0,0,1,.07-.05.21.21,0,0,1,.12,0h.39a.23.23,0,0,1,.13,0,.1.1,0,0,1,.06.05.07.07,0,0,1,0,.06v2.56a2.59,2.59,0,0,0,.06.62,1.07,1.07,0,0,0,.17.39.8.8,0,0,0,.29.26.91.91,0,0,0,.41.09,1,1,0,0,0,.6-.22,3.12,3.12,0,0,0,.64-.63v-3.07a.14.14,0,0,1,0-.06.1.1,0,0,1,.06-.05.28.28,0,0,1,.13,0h.39a.19.19,0,0,1,.12,0,.13.13,0,0,1,.07.05.14.14,0,0,1,0,.06Z" transform="translate(-0.45 -0.45)"/><path class="cls-63" d="M75.28,174.39a.81.81,0,0,1,0,.16.62.62,0,0,1,0,.1l-.06.06-.07,0H72.4a.22.22,0,0,1-.17-.07.33.33,0,0,1-.06-.23v-.16a.53.53,0,0,1,0-.13.38.38,0,0,1,0-.1.61.61,0,0,1,.05-.12l.08-.14,1.94-3H72.4a.12.12,0,0,1-.12-.08.54.54,0,0,1,0-.26c0-.06,0-.11,0-.15a.81.81,0,0,1,0-.11l.06-.06H75a.18.18,0,0,1,.07.05.36.36,0,0,1,0,.09.49.49,0,0,1,0,.13v.16a.53.53,0,0,1,0,.13.23.23,0,0,1,0,.11.61.61,0,0,1,0,.12L75,171l-1.93,3h2.06l.07,0,0,.05a.28.28,0,0,1,0,.11A.76.76,0,0,1,75.28,174.39Zm-1-5.68a.53.53,0,0,1-.1.38.57.57,0,0,1-.39.1.5.5,0,0,1-.37-.1.48.48,0,0,1-.11-.36.55.55,0,0,1,.87-.38A.5.5,0,0,1,74.24,168.71Z" transform="translate(-0.45 -0.45)"/><path class="cls-63" d="M78.35,174.73l-.59,1.62a.24.24,0,0,1-.15.12,1.49,1.49,0,0,1-.36,0H77a.33.33,0,0,1-.12-.05.08.08,0,0,1,0-.07.17.17,0,0,1,0-.12l.61-1.53a.24.24,0,0,1-.09-.06.31.31,0,0,1,0-.1l-1.57-4.2a.62.62,0,0,1,0-.16.13.13,0,0,1,0-.09.32.32,0,0,1,.13-.05h.46a.23.23,0,0,1,.13,0,.16.16,0,0,1,.08.05,1,1,0,0,1,0,.1l1.26,3.53h0l1.21-3.55a.31.31,0,0,1,.07-.12.33.33,0,0,1,.13,0h.46a.32.32,0,0,1,.13.05.1.1,0,0,1,0,.09.49.49,0,0,1,0,.15Z" transform="translate(-0.45 -0.45)"/><path class="cls-63" d="M83.2,174.29a.72.72,0,0,1,0,.22.23.23,0,0,1-.05.12l-.12.08-.18,0-.21,0h-.23a1.68,1.68,0,0,1-.58-.09,1,1,0,0,1-.4-.27,1.09,1.09,0,0,1-.23-.47,2.52,2.52,0,0,1-.07-.66v-2.56h-.62a.14.14,0,0,1-.11-.08.54.54,0,0,1,0-.26.61.61,0,0,1,0-.15.18.18,0,0,1,0-.11.1.1,0,0,1,.05-.06h.68V169a.14.14,0,0,1,0-.06.1.1,0,0,1,.06,0,.34.34,0,0,1,.12,0h.4a.34.34,0,0,1,.12,0,.18.18,0,0,1,.07,0,.14.14,0,0,1,0,.06v1.05h1.19a.1.1,0,0,1,0,.06.18.18,0,0,1,0,.11.66.66,0,0,1,0,.15.56.56,0,0,1,0,.26.14.14,0,0,1-.12.08H81.92v2.45a1.37,1.37,0,0,0,.13.68.5.5,0,0,0,.48.23.65.65,0,0,0,.2,0l.16,0L83,174a.18.18,0,0,1,.09,0h0a.11.11,0,0,1,0,.05.2.2,0,0,1,0,.09A.66.66,0,0,1,83.2,174.29Z" transform="translate(-0.45 -0.45)"/><path class="cls-63" d="M87.88,174.6a.14.14,0,0,1,0,.07.18.18,0,0,1-.07.05l-.13,0h-.43l-.14,0a.19.19,0,0,1-.09,0,.27.27,0,0,1-.07-.08l-1.86-2.43v2.44s0,0,0,.06a.1.1,0,0,1-.06.05l-.12,0h-.4l-.12,0a.1.1,0,0,1-.06-.05s0,0,0-.06v-6.53a.07.07,0,0,1,0-.06.1.1,0,0,1,.06-.05.21.21,0,0,1,.12,0h.4a.21.21,0,0,1,.12,0,.1.1,0,0,1,.06.05.07.07,0,0,1,0,.06v4l1.66-1.83.09-.08.1-.05a.33.33,0,0,1,.15,0h.4l.14,0a.18.18,0,0,1,.07,0,.14.14,0,0,1,0,.07.27.27,0,0,1,0,.12l-.11.13L86,172.05l1.79,2.32.09.14A.16.16,0,0,1,87.88,174.6Z" transform="translate(-0.45 -0.45)"/><path class="cls-63" d="M92.56,172.36a3.12,3.12,0,0,1-.14,1,2.1,2.1,0,0,1-.42.78,1.89,1.89,0,0,1-.7.51,2.48,2.48,0,0,1-1,.18,2.52,2.52,0,0,1-.95-.16,1.7,1.7,0,0,1-.67-.47,2,2,0,0,1-.4-.74,3.73,3.73,0,0,1,0-2,2.1,2.1,0,0,1,.42-.78,1.89,1.89,0,0,1,.7-.51,2.48,2.48,0,0,1,1-.18,2.74,2.74,0,0,1,1,.16,1.89,1.89,0,0,1,.67.47,2.08,2.08,0,0,1,.4.75A3.35,3.35,0,0,1,92.56,172.36Zm-.83.06a3,3,0,0,0-.07-.68,1.46,1.46,0,0,0-.22-.56,1.13,1.13,0,0,0-.41-.37,1.28,1.28,0,0,0-.65-.14,1.46,1.46,0,0,0-.62.12,1.36,1.36,0,0,0-.43.36,1.61,1.61,0,0,0-.24.55,2.53,2.53,0,0,0-.09.7,3.53,3.53,0,0,0,.07.67,1.77,1.77,0,0,0,.22.56,1.15,1.15,0,0,0,.42.37,1.28,1.28,0,0,0,.65.14A1.49,1.49,0,0,0,91,174a1.22,1.22,0,0,0,.42-.36,1.33,1.33,0,0,0,.25-.55A3,3,0,0,0,91.73,172.42Z" transform="translate(-0.45 -0.45)"/><path class="cls-63" d="M99.86,170.2a.31.31,0,0,1,0,.09l0,.12-1.3,4.17a.19.19,0,0,1,0,.09l-.09.05a.35.35,0,0,1-.16,0h-.49l-.17,0a.19.19,0,0,1-.09-.05.25.25,0,0,1,0-.09l-.93-3.19v0l-.86,3.19a.13.13,0,0,1,0,.09.19.19,0,0,1-.09.05.38.38,0,0,1-.16,0h-.5l-.15,0a.19.19,0,0,1-.09-.05.26.26,0,0,1,0-.09l-1.28-4.17s0-.09,0-.12,0-.06,0-.09a.14.14,0,0,1,0-.07l.07,0,.12,0h.41l.13,0a.1.1,0,0,1,.06,0,.2.2,0,0,1,0,.08l1.06,3.62v0l1-3.62,0-.08a.18.18,0,0,1,.07,0l.12,0h.39l.12,0a.1.1,0,0,1,.06,0l0,.07,1,3.63v0l1-3.62,0-.08a.18.18,0,0,1,.07,0l.13,0h.39l.11,0a.15.15,0,0,1,.06,0A.14.14,0,0,1,99.86,170.2Z" transform="translate(-0.45 -0.45)"/><path class="cls-63" d="M104.64,174.61s0,0,0,.06a.1.1,0,0,1-.06.05l-.12,0H104l-.12,0a.1.1,0,0,1-.06-.05.11.11,0,0,1,0-.06V172a2.41,2.41,0,0,0-.06-.6,1.46,1.46,0,0,0-.17-.4.78.78,0,0,0-.29-.25.91.91,0,0,0-.41-.09,1,1,0,0,0-.61.22,3.11,3.11,0,0,0-.63.63v3.07a.11.11,0,0,1,0,.06.18.18,0,0,1-.07.05l-.12,0h-.39l-.13,0a.1.1,0,0,1-.06-.05.11.11,0,0,1,0-.06v-4.4a.14.14,0,0,1,0-.06s0,0,.05-.05a.21.21,0,0,1,.12,0h.35a.16.16,0,0,1,.11,0,.1.1,0,0,1,.06.05.14.14,0,0,1,0,.06v.58a2.6,2.6,0,0,1,.74-.6,1.55,1.55,0,0,1,.74-.2,1.62,1.62,0,0,1,.74.15,1.37,1.37,0,0,1,.49.4,1.61,1.61,0,0,1,.26.58,3.22,3.22,0,0,1,.08.81Z" transform="translate(-0.45 -0.45)"/><path class="cls-63" d="M107,168.73a.51.51,0,0,1-.1.38.6.6,0,0,1-.4.11.61.61,0,0,1-.39-.1.54.54,0,0,1-.1-.38.55.55,0,0,1,.1-.39.6.6,0,0,1,.4-.1.55.55,0,0,1,.39.1A.53.53,0,0,1,107,168.73Zm-.09,5.88a.11.11,0,0,1,0,.06.1.1,0,0,1-.06.05l-.13,0h-.39l-.13,0a.1.1,0,0,1-.06-.05.11.11,0,0,1,0-.06v-4.4a.14.14,0,0,1,0-.06.1.1,0,0,1,.06-.05l.13,0h.39l.13,0a.1.1,0,0,1,.06.05.14.14,0,0,1,0,.06Z" transform="translate(-0.45 -0.45)"/><path class="cls-63" d="M112,174.6a.14.14,0,0,1,0,.07.18.18,0,0,1-.07.05l-.13,0h-.42l-.15,0a.19.19,0,0,1-.09,0,.27.27,0,0,1-.07-.08l-1.86-2.43v2.44s0,0,0,.06a.18.18,0,0,1-.07.05l-.12,0h-.4l-.12,0a.1.1,0,0,1-.06-.05.11.11,0,0,1,0-.06v-6.53a.14.14,0,0,1,0-.06.1.1,0,0,1,.06-.05.21.21,0,0,1,.12,0h.4a.21.21,0,0,1,.12,0,.18.18,0,0,1,.07.05.13.13,0,0,1,0,.06v4l1.67-1.83.08-.08.1-.05a.33.33,0,0,1,.15,0h.4l.14,0a.13.13,0,0,1,.07,0,.14.14,0,0,1,0,.07.27.27,0,0,1,0,.12l-.1.13-1.6,1.59,1.79,2.32.09.14A.16.16,0,0,1,112,174.6Z" transform="translate(-0.45 -0.45)"/><path class="cls-63" d="M116.09,174.61a.12.12,0,0,1,0,.09l-.11,0-.2,0-.2,0a.23.23,0,0,1-.11,0,.1.1,0,0,1,0-.09v-.44a2,2,0,0,1-.64.48,1.65,1.65,0,0,1-.75.17,2.08,2.08,0,0,1-.63-.09,1.4,1.4,0,0,1-.48-.26,1.08,1.08,0,0,1-.3-.42,1.29,1.29,0,0,1-.11-.57,1.32,1.32,0,0,1,.15-.64,1.23,1.23,0,0,1,.43-.45,2.13,2.13,0,0,1,.7-.28,4.28,4.28,0,0,1,.92-.09h.6v-.34a1.55,1.55,0,0,0-.05-.45.82.82,0,0,0-.17-.32.83.83,0,0,0-.31-.2,1.63,1.63,0,0,0-.47-.06,1.81,1.81,0,0,0-.54.07l-.41.15-.3.16a.38.38,0,0,1-.18.07l-.07,0s0,0-.05-.06a.62.62,0,0,1,0-.1.53.53,0,0,1,0-.13.84.84,0,0,1,0-.19.29.29,0,0,1,.08-.14,1.53,1.53,0,0,1,.23-.15,2.59,2.59,0,0,1,.37-.15,2.8,2.8,0,0,1,.46-.12,2.73,2.73,0,0,1,.5,0,2.69,2.69,0,0,1,.81.11,1.22,1.22,0,0,1,.53.32,1.14,1.14,0,0,1,.3.51,2.63,2.63,0,0,1,.09.72Zm-.8-2h-.68a2.45,2.45,0,0,0-.58,0,1.18,1.18,0,0,0-.41.17.71.71,0,0,0-.23.26.8.8,0,0,0-.08.36.7.7,0,0,0,.22.54.83.83,0,0,0,.61.2,1.14,1.14,0,0,0,.59-.16,2.42,2.42,0,0,0,.56-.49Z" transform="translate(-0.45 -0.45)"/></g></g></g><g id="shape5123-147"><rect class="cls-14" x="129.25" y="14.37" width="40.75" height="24.63"/><g class="cls-23"><text class="cls-32" transform="translate(143.19 23.68)">Ź<tspan class="cls-33" x="4.78" y="0">r</tspan><tspan x="8.21" y="0">ódło </tspan><tspan x="-6.42" y="12">p</tspan><tspan class="cls-34" x="-1.06" y="12">r</tspan><tspan class="cls-64" x="2.54" y="12">y</tspan><tspan class="cls-65" x="7.34" y="12">w</tspan><tspan class="cls-39" x="14.68" y="12">a</tspan><tspan x="19.52" y="12">tne </tspan></text></g></g><g id="shape5124-151"><g id="shadow5124-152"><g id="lend4-10" data-name="lend4"><path class="cls-27" d="M308.27,32l6.44,4.52-7.48,2.44,1-7" transform="translate(-0.45 -0.45)"/></g><path class="cls-27" d="M130.7,9" transform="translate(-0.45 -0.45)"/></g><g id="lend4-11" data-name="lend4"><path class="cls-28" d="M308.27,32l6.44,4.52-7.48,2.44,1-7" transform="translate(-0.45 -0.45)"/></g><path class="cls-28" d="M130.7,9" transform="translate(-0.45 -0.45)"/></g><g id="shape5125-163"><rect class="cls-14" x="367.87" y="119.99" width="81.51" height="28.69"/><g class="cls-23"><text class="cls-40" transform="translate(378.79 127.94)"><tspan class="cls-41">Z</tspan><tspan x="3.79" y="0">aso</tspan><tspan class="cls-42" x="15.23" y="0">b</tspan><tspan x="19.48" y="0">y p</tspan><tspan class="cls-66" x="29.37" y="0">r</tspan><tspan class="cls-67" x="32.25" y="0">y</tspan><tspan class="cls-68" x="36.08" y="0">w</tspan><tspan class="cls-69" x="41.96" y="0">a</tspan><tspan x="45.83" y="0">tne:</tspan></text><text class="cls-43" transform="translate(397.03 137.54)">Ob<tspan class="cls-44" x="9.5" y="0">r</tspan><tspan x="12.13" y="0">a</tspan><tspan class="cls-45" x="15.96" y="0">z</tspan><tspan x="19.05" y="0">y </tspan><tspan x="-11.29" y="9.6">własności</tspan><tspan class="cls-70" x="20.14" y="9.6">o</tspan><tspan class="cls-45" x="24.33" y="9.6">w</tspan><tspan x="29.98" y="9.6">e</tspan></text></g></g><g id="shape5130-167"><g id="shadow5130-168"><g id="lend4-12" data-name="lend4"><path class="cls-27" d="M309.77,170.15l-.07,0,.06,0v.07" transform="translate(-0.45 -0.45)"/></g><path class="cls-27" d="M310.87,169.87" transform="translate(-0.45 -0.45)"/></g><g id="lend4-13" data-name="lend4"><path class="cls-28" d="M259.32,180.86l-7.64-1.92L257.8,174l1.52,6.87" transform="translate(-0.45 -0.45)"/></g><path class="cls-28" d="M368.89,153.07" transform="translate(-0.45 -0.45)"/></g><g id="group5116-179"><g id="group5117-180"><g id="shape5118-181"><path class="cls-21" d="M111.77.45H129V11.81l1.7,1.69V25.86h-9.86v-6l1.79-1.7v-13h-11V.45Z" transform="translate(-0.45 -0.45)"/></g><g id="shape5119-183"><path class="cls-21" d="M130.69,11V.45h1.79V11l-.89.9Z" transform="translate(-0.45 -0.45)"/></g></g><g id="group5120-185"><g id="shape5121-186"><path class="cls-28" d="M100.51,6.72h17.23V18.08l1.7,1.69V32.13h-19V6.72Z" transform="translate(-0.45 -0.45)"/></g><g id="shape5122-188"><path class="cls-28" d="M119.54,17.39V6.73h1.69V17.39l-.89.9Z" transform="translate(-0.45 -0.45)"/></g></g></g><g id="group4886-190"><g id="group4887-191"><g id="shape4888-192"><path class="cls-21" d="M147.35,74.33h17.23V85.69l1.7,1.69V99.74h-9.86v-6l1.79-1.7V79h-11V74.33Z" transform="translate(-0.45 -0.45)"/></g><g id="shape4889-194"><path class="cls-21" d="M166.28,84.89V74.33h1.79V84.89l-.89.9Z" transform="translate(-0.45 -0.45)"/></g></g><g id="group4890-196"><g id="shape4891-197"><path class="cls-28" d="M136.1,80.6h17.23V92l1.7,1.69V106H136V80.6Z" transform="translate(-0.45 -0.45)"/></g><g id="shape4892-199"><path class="cls-28" d="M155.12,91.27V80.61h1.69V91.27l-.89.9Z" transform="translate(-0.45 -0.45)"/></g></g></g><g id="group5101-201"><g id="shape5102-202"><path class="cls-25" d="M332.82,96.48a3.88,3.88,0,0,1,1.8-3.33H321.13a3.88,3.88,0,0,0-1.8,3.33v15h9s-.26,3,2.27,3,2.27-2.88,2.27-2.88S332.82,98.75,332.82,96.48Z" transform="translate(-0.45 -0.45)"/></g><g id="shape5103-204"><path class="cls-26" d="M326.81,113h-10a2.68,2.68,0,0,0,2.14,1.47h8.68A2.05,2.05,0,0,1,326.81,113Z" transform="translate(-0.45 -0.45)"/></g><g id="shape5104-206"><path class="cls-26" d="M334,97.63a9.55,9.55,0,0,1,0-1.47c.13-1.14.6-2.34,2.07-2.34S336.75,97.63,334,97.63Z" transform="translate(-0.45 -0.45)"/></g></g><g id="group5131-208"><g id="shape3-211"><rect class="cls-14" x="265.23" y="92.7" width="19.17" height="22.79"/><path id="mfid30" class="cls-71" d="M265.69,93.18v22.74h19.17V98a46.56,46.56,0,0,0-4.64-.63c0-.79,0-.73-.12-4.15Z" transform="translate(-0.45 -0.45)"/><path id="mfid31" class="cls-1" d="M266.18,93.67v21.76h18.19V97.82s-4.2-.69-4.3-4.15Z" transform="translate(-0.45 -0.45)"/><g class="cls-72"><g class="cls-73"><path id="mfid36" class="cls-74" d="M278.79,99.42h7V92.17h-7Z" transform="translate(-0.45 -0.45)"/></g></g><path id="mfid39" class="cls-1" d="M280.27,98h3.91L280.27,94Z" transform="translate(-0.45 -0.45)"/><g class="cls-75"><rect class="cls-76" x="268.11" y="105.17" width="12.93" height="2.46"/></g><g class="cls-75"><rect class="cls-77" x="268.11" y="108.12" width="12.93" height="2.46"/></g><g class="cls-75"><rect class="cls-78" x="268.11" y="111.07" width="12.93" height="2.46"/></g><path id="mfid52" class="cls-79" d="M269.58,101.61l4.12-2.12v.61l-3.47,1.74v0l3.47,1.73v.61l-4.12-2.11v-.48Z" transform="translate(-0.45 -0.45)"/><path id="mfid53" class="cls-79" d="M281.07,102.09,277,104.2v-.61l3.47-1.73v0L277,100.1v-.61l4.11,2.12Z" transform="translate(-0.45 -0.45)"/><rect class="cls-14" x="265.23" y="92.7" width="19.17" height="22.79"/></g><g id="group5133-216"><g id="shape5134-217"><rect class="cls-80" x="282.12" y="99.99" width="8.21" height="8.21"/></g><g id="shape5135-219"><rect class="cls-81" x="282.57" y="100.44" width="7.32" height="7.32"/></g><g id="shape5136-227"><rect class="cls-82" x="283.63" y="103.66" width="5.19" height="0.88"/></g></g><g id="group5137-231"><g id="shape5138-232"><rect class="cls-80" x="282.12" y="99.99" width="8.21" height="8.21"/></g><g id="shape5139-234"><rect class="cls-81" x="282.57" y="100.44" width="7.32" height="7.32"/></g><g id="shape5140-237"><rect class="cls-83" x="285.79" y="101.5" width="0.88" height="5.19"/></g><g id="shape5141-239"><rect class="cls-83" x="283.63" y="103.66" width="5.19" height="0.88"/></g></g></g><g id="group5143-245"><g id="shape4-248"><rect class="cls-14" x="292.76" y="92.7" width="17.67" height="21.3"/><g class="cls-84"><g class="cls-85"><path id="mfid58" class="cls-86" d="M292.36,115.29h19.38v-23H292.36Z" transform="translate(-0.45 -0.45)"/></g></g><g class="cls-87"><g class="cls-88"><path id="mfid64" class="cls-89" d="M318.3,103.74c0-4-4.85-7.32-10.82-7.32s-10.82,3.28-10.82,7.32,4.85,7.32,10.82,7.32S318.3,107.79,318.3,103.74Z" transform="translate(-0.45 -0.45)"/></g></g><g class="cls-87"><g class="cls-90"><path id="mfid70" class="cls-91" d="M318.93,102c0-4.83-5-8.74-11.17-8.74s-11.18,3.91-11.18,8.74,5,8.73,11.18,8.73S318.93,106.82,318.93,102Z" transform="translate(-0.45 -0.45)"/></g></g><path id="mfid73" class="cls-92" d="M300.56,99.78a3.23,3.23,0,1,0,6.46,0,3.23,3.23,0,0,0-3.22-3.23A3.24,3.24,0,0,0,300.56,99.78Zm.49,0a2.75,2.75,0,1,1,2.74,2.74A2.75,2.75,0,0,1,301.05,99.78Z" transform="translate(-0.45 -0.45)"/><g class="cls-87"><rect class="cls-93" x="291.91" y="103.6" width="19.38" height="7.9"/></g><path id="mfid78" class="cls-94" d="M308.33,108.83a5.94,5.94,0,0,0-4.74-.65c-2.41.86-3.24,2.59-5.33,2.53-1.86,0-2-.56-4.93-.82v2.88c3,.26,3.07.77,4.93.83,2.09.06,2.92-1.68,5.33-2.54a5.94,5.94,0,0,1,4.74.65,6,6,0,0,1,2.43-2.56v-2.89A6,6,0,0,0,308.33,108.83Z" transform="translate(-0.45 -0.45)"/><g class="cls-87"><rect class="cls-95" x="291.91" y="107.73" width="19.38" height="7.12"/></g><g class="cls-87"><rect class="cls-96" x="291.91" y="95.42" width="17.01" height="8.49"/></g><path id="mfid87" class="cls-97" d="M293.33,93.28v21h17.43v-21Zm7.21,6.28h0Z" transform="translate(-0.45 -0.45)"/><rect class="cls-14" x="292.76" y="92.7" width="17.67" height="21.3"/></g><g id="group5145-253"><g id="shape5146-254"><rect class="cls-80" x="308.29" y="99.52" width="7.67" height="7.67"/></g><g id="shape5147-256"><rect class="cls-98" x="308.71" y="99.93" width="6.84" height="6.84"/></g><g id="shape5148-259"><rect class="cls-99" x="309.7" y="102.94" width="4.85" height="0.82"/></g></g><g id="group5149-262"><g id="shape5150-263"><rect class="cls-80" x="308.29" y="99.52" width="7.67" height="7.67"/></g><g id="shape5151-265"><rect class="cls-98" x="308.71" y="99.93" width="6.84" height="6.84"/></g><g id="shape5152-268"><rect class="cls-83" x="311.72" y="100.93" width="0.82" height="4.85"/></g><g id="shape5153-270"><rect class="cls-83" x="309.7" y="102.94" width="4.85" height="0.82"/></g></g></g><g id="group5183-275"><g id="shape7-278"><rect class="cls-14" x="397.94" y="92.7" width="21.04" height="25"/><path id="mfid88" class="cls-71" d="M398.4,93.18v25h21V98.43a51.44,51.44,0,0,0-5.1-.69c0-.87,0-.8-.12-4.56Z" transform="translate(-0.45 -0.45)"/><path id="mfid89" class="cls-1" d="M398.94,93.72V117.6h20V98.28s-4.61-.77-4.72-4.56Z" transform="translate(-0.45 -0.45)"/><g class="cls-100"><g class="cls-101"><path id="mfid94" class="cls-102" d="M412.82,100h7.63V92.11h-7.63Z" transform="translate(-0.45 -0.45)"/></g></g><path id="mfid97" class="cls-1" d="M414.4,98.41h4.29L414.4,94.1Z" transform="translate(-0.45 -0.45)"/><path id="mfid98" class="cls-103" d="M401,103.83s.78.47,3.8-.39c2.17-.63,4.67-1.51,6.47-1.51a7.72,7.72,0,0,1,4.21,1.45c.23.19.8.78.8.78v11.1l-15.35.06Z" transform="translate(-0.45 -0.45)"/><path id="mfid99" class="cls-104" d="M401,103.8V96.49l12.89,0v2.46h2.4l-.09,5.24a6.29,6.29,0,0,0-4.46-2.17c-3-.24-7,1.78-9.18,1.93C401.21,104,401,103.8,401,103.8Z" transform="translate(-0.45 -0.45)"/><rect class="cls-105" x="409.05" y="101.61" width="6.15" height="4.72"/><path id="mfid100" class="cls-106" d="M406.57,104.15a2.51,2.51,0,1,0-2.5,2.74A2.62,2.62,0,0,0,406.57,104.15Z" transform="translate(-0.45 -0.45)"/><path id="mfid101" class="cls-107" d="M403.31,110.94l3.64-9L410.5,111a5.59,5.59,0,0,1-3.56,1.2A6.29,6.29,0,0,1,403.31,110.94Z" transform="translate(-0.45 -0.45)"/><path id="mfid102" class="cls-108" d="M402.53,111.06h11.3V99.93h-11.3Z" transform="translate(-0.45 -0.45)"/><path id="mfid103" class="cls-109" d="M412.52,110.49l.7,3.62.76-.87,1.1,1.54.5-.45L414.45,113l1.15-.38Z" transform="translate(-0.45 -0.45)"/><path id="mfid104" class="cls-109" d="M413.13,114.41l.84-1,1.08,1.52.71-.63L414.68,113l1.23-.41-3.59-2.42Zm-.41-3.62,2.57,1.73-1.08.36,1.17,1.44-.28.25L414,113l-.69.79C413.22,113.38,412.81,111.29,412.72,110.79Z" transform="translate(-0.45 -0.45)"/><path id="mfid105" class="cls-1" d="M412.68,109.9l.72,3.7.77-.89,1.12,1.57.51-.46-1.15-1.41,1.18-.39Z" transform="translate(-0.45 -0.45)"/><path id="mfid106" class="cls-110" d="M413.31,113.9l.85-1,1.11,1.55.72-.64-1.1-1.36,1.25-.42-3.66-2.46Zm-.43-3.69,2.63,1.76-1.1.37,1.19,1.47-.28.25c-.16-.21-1.13-1.58-1.13-1.58l-.71.81C413.39,112.85,413,110.71,412.88,110.21Z" transform="translate(-0.45 -0.45)"/><rect class="cls-14" x="397.94" y="92.7" width="21.04" height="25"/></g><g id="group5185-283"><g id="shape5186-284"><rect class="cls-80" x="416.48" y="100.7" width="9" height="9"/></g><g id="shape5187-286"><rect class="cls-111" x="416.97" y="101.18" width="8.03" height="8.03"/></g><g id="shape5188-289"><rect class="cls-112" x="418.14" y="104.72" width="5.69" height="0.96"/></g></g><g id="group5189-292"><g id="shape5190-293"><rect class="cls-80" x="416.48" y="100.7" width="9" height="9"/></g><g id="shape5191-295"><rect class="cls-111" x="416.97" y="101.18" width="8.03" height="8.03"/></g><g id="shape5192-298"><rect class="cls-83" x="420.5" y="102.35" width="0.96" height="5.69"/></g><g id="shape5193-300"><rect class="cls-83" x="418.14" y="104.72" width="5.69" height="0.96"/></g></g></g><line class="cls-113" x1="126.03" y1="224.27" x2="196.88" y2="203.01"/><line class="cls-113" x1="127.12" y1="179.42" x2="197.04" y2="177.56"/><line class="cls-113" x1="236.45" y1="174.49" x2="261.61" y2="152.62"/><line class="cls-113" x1="258.11" y1="176.98" x2="368.44" y2="152.62"/><line class="cls-114" x1="168.1" y1="86.11" x2="172.08" y2="85.71"/><line class="cls-115" x1="175.94" y1="85.32" x2="301.4" y2="72.58"/><line class="cls-114" x1="303.33" y1="72.39" x2="307.31" y2="71.98"/><line class="cls-116" x1="133.62" y1="7.5" x2="307.29" y2="35.07"/></svg>